<?xml version="1.0" encoding="UTF-8" standalone="no"?><!DOCTYPE svg PUBLIC "-//W3C//DTD SVG 1.1//EN" "http://www.w3.org/Graphics/SVG/1.1/DTD/svg11.dtd"><svg role="img" aria-label="糞取山酷会" viewBox="0 0 431 128" version="1.1" xmlns="http://www.w3.org/2000/svg" xmlns:xlink="http://www.w3.org/1999/xlink" xml:space="preserve" xmlns:serif="http://www.serif.com/" style="fill-rule:evenodd;clip-rule:evenodd;stroke-linejoin:round;stroke-miterlimit:2;" fill="currentColor"><rect id="アートボード2" x="0" y="0" width="430.244" height="127.168" style="fill:none;"/><g id="layer1"><path id="path150-7-3" d="M190.61,125.08c-2.542,-0.692 -5.249,-2.463 -8.686,-5.683c-1.455,-1.364 -2.101,-2.157 -2.508,-3.08c-0.71,-1.608 -1.518,-5.237 -2.146,-9.634c-0.7,-4.908 -1.381,-7.283 -3.172,-11.076c-0.396,-0.838 -0.679,-1.706 -0.629,-1.93c0.052,-0.234 0.572,-0.549 1.232,-0.745c0.629,-0.186 1.528,-0.64 1.998,-1.01c1.686,-1.323 3.78,-5.645 5.155,-10.635c1.083,-3.935 1.785,-12.047 1.214,-14.034c-0.286,-0.996 -1.484,-1.99 -2.663,-2.21c-4.921,-0.92 -7.148,-3.903 -7.996,-10.711c-0.273,-2.19 -0.281,-2.764 -0.079,-5.746c0.317,-4.704 0.705,-7.059 1.764,-10.725c1.098,-3.801 1.299,-5.063 1.412,-8.89c0.055,-1.869 0.15,-2.849 0.271,-2.794c0.103,0.043 0.468,0.473 0.812,0.95c1.727,2.394 4.228,3.242 9.584,3.25c3.978,0.015 5.507,0.235 7.291,1.092c2.083,1 3.683,4.977 4.05,10.064c0.217,3.002 0.096,9.153 -0.27,13.77c-0.142,1.786 -0.378,5.503 -0.527,8.262c-0.148,2.759 -0.293,5.398 -0.323,5.865l-0.054,0.848l0.958,-0.177c1.498,-0.277 2.899,-0.991 4.293,-2.188c1.801,-1.548 2.133,-2.552 2.408,-7.296c0.274,-4.731 0.103,-16.379 -0.347,-23.581c-0.192,-3.069 -0.368,-5.591 -0.392,-5.606c-0.891,-0.534 -2.618,-2.445 -3.583,-3.963c-1.843,-2.897 -2.336,-3.449 -3.475,-3.888c-0.565,-0.218 -1.202,-0.627 -1.416,-0.908l-0.389,-0.511l0.475,-0.157c0.261,-0.086 1.052,-0.245 1.758,-0.353c1.364,-0.209 1.71,-0.476 1.71,-1.319c0,-0.758 -1.412,-2.265 -2.483,-2.648c-0.901,-0.322 -1.399,-0.904 -1.215,-1.417c0.051,-0.145 0.749,-0.351 1.549,-0.457c1.351,-0.179 2.951,-0.977 3.481,-1.736c0.355,-0.507 -0.568,-1.921 -1.63,-2.499c-0.752,-0.409 -0.905,-0.605 -0.864,-1.103c0.039,-0.493 0.194,-0.622 0.82,-0.693c0.423,-0.051 2.926,-1.009 5.56,-2.135c5.914,-2.529 7.124,-2.773 12.574,-2.546c4.609,0.193 5.837,0.473 9.273,2.115c2.465,1.179 4.248,2.765 5.864,5.218c1.111,1.686 2.772,5.586 3,7.04c0.375,2.405 -0.366,4.416 -2.334,6.336c-2.986,2.915 -4.161,4.615 -5.395,7.811c-1.246,3.225 -1.154,3.264 1.68,0.707c1.396,-1.26 3.155,-2.953 3.908,-3.762c2.606,-2.803 5.503,-4.617 7.37,-4.617c1.773,0 4.304,1.736 6.23,4.271c0.517,0.681 1.512,1.81 2.21,2.509c3.636,3.641 6.857,12.771 6.857,19.439c0,3.295 -0.427,5.151 -1.743,7.578c-1.26,2.323 -2.813,3.755 -4.617,4.259c-2.214,0.618 -2.023,0.415 -2.022,2.151c0,1.588 0.834,9.007 1.599,14.231c1.1,7.512 1.223,9.222 1.223,16.966c0,6.629 -0.031,7.419 -0.386,9.528c-0.545,3.242 -1.436,6.144 -2.259,7.36c-1.792,2.645 -6.066,6.98 -8.178,8.294c-2.816,1.752 -7.124,2.214 -10.254,1.1c-1.921,-0.684 -2.576,-1.287 -5.525,-5.083c-2.598,-3.346 -2.906,-3.628 -6.843,-6.265c-3.543,-2.374 -4.773,-2.956 -7.859,-3.716c-1.358,-0.334 -2.496,-0.654 -2.529,-0.711c-0.132,-0.227 2.265,-0.526 6.174,-0.771c5.819,-0.365 9.74,-1.244 13.096,-2.937c1.281,-0.647 2.604,-2.743 1.938,-3.072c-1.786,-0.883 -3.348,-1.14 -5.859,-0.964c-2.682,0.187 -6.986,1.012 -9.494,1.82c-1.239,0.399 -6.276,2.334 -6.948,2.669c-0.223,0.111 -0.293,0.739 -0.369,3.303c-0.114,3.812 -0.549,6.404 -1.45,8.627c-0.797,1.968 -3.252,5.669 -4.406,6.642c-1.902,1.605 -5.35,2.484 -7.474,1.906l-0,0.001Zm10.275,-41.915c5.293,-1.349 4.982,-1.029 2.809,-2.89c-1.016,-0.871 -2.694,-2.422 -3.729,-3.447c-1.035,-1.025 -2.286,-2.137 -2.78,-2.47l-0.898,-0.605l0,10.687l0.556,-0.193c0.306,-0.108 2.125,-0.594 4.042,-1.083l0,0.001Zm25.221,-6.472c1.205,-0.161 2.363,-0.293 2.574,-0.293c0.816,-0 0.876,-1.297 0.887,-19.275l0.009,-16.472l-0.473,-0.581c-0.494,-0.607 -2.4,-1.425 -3.337,-1.434c-0.527,-0 -0.55,0.051 -0.734,1.691c-0.104,0.933 -0.236,1.962 -0.293,2.287c-0.057,0.324 -0.153,6.366 -0.213,13.425c-0.097,11.413 -0.144,12.998 -0.423,14.31c-0.434,2.043 -1.202,4.829 -1.649,5.982l-0.374,0.965l0.917,-0.156c0.505,-0.086 1.903,-0.288 3.108,-0.449l0.001,-0Z" style="fill-rule:nonzero;"/><path id="path134-8-8" d="M266.3,124.322c-1.419,-1.369 -2.994,-3.51 -3.568,-4.848c-1.427,-3.328 -2.939,-11.361 -3.91,-20.775c-0.446,-4.323 -0.159,-4.934 0.875,-1.866c0.761,2.258 1.191,2.699 2.013,2.068c0.723,-0.554 1.23,-2.356 1.484,-5.265c0.22,-2.527 -0.026,-9.515 -0.393,-11.123l-0.259,-1.138l-1.112,0c-1.29,0 -1.901,-0.478 -2.524,-1.976c-0.596,-1.434 -1.096,-4.184 -1.096,-6.024c-0,-0.839 0.156,-2.407 0.348,-3.485c0.373,-2.102 0.609,-6.917 0.426,-8.706c-0.062,-0.602 -0.375,-1.796 -0.696,-2.652c-0.321,-0.857 -0.584,-1.762 -0.584,-2.011c0,-0.89 0.341,-0.812 0.895,0.206c0.699,1.282 2.234,2.408 3.568,2.616c0.556,0.087 1.692,-0.015 2.526,-0.218c2.518,-0.626 3.506,-0.7 4.274,-0.321c0.883,0.436 1.536,1.551 1.536,2.623c-0,0.755 0.038,0.787 1.01,0.787c0.556,-0 1.01,-0.054 1.01,-0.116c0,-0.737 -0.991,-3.845 -1.627,-5.103l-0.814,-1.61l-2.526,-1.187c-2.663,-1.252 -6.534,-3.92 -9.552,-6.585c-1.813,-1.601 -2.063,-1.97 -1.821,-2.689c0.105,-0.312 0.443,-0.315 1.682,-0.023c1.78,0.425 2.149,0.335 4.366,-1.063c2.434,-1.535 3.593,-2.923 2.476,-2.967c-0.193,-0.015 -0.654,-0.226 -1.025,-0.484c-0.37,-0.26 -1.545,-0.96 -2.61,-1.557c-2.266,-1.27 -3.599,-2.497 -4.723,-4.353c-1.036,-1.709 -1.239,-2.834 -1.126,-6.235c0.14,-4.245 0.466,-5.189 4.19,-12.106c1.361,-2.528 2.35,-5.448 2.462,-7.27c0.049,-0.811 0.17,-1.36 0.296,-1.36c0.118,0 0.789,0.959 1.492,2.131c2.288,3.814 3.844,5.319 6.57,6.352c1.563,0.593 3.21,0.642 5.827,0.174c3.545,-0.633 4.979,-1.18 7.209,-2.749c2.923,-2.056 3.923,-2.625 6.852,-3.896c1.389,-0.603 2.891,-1.316 3.337,-1.585l0.811,-0.489l0.982,1.113c0.541,0.613 1.061,1.113 1.157,1.113c0.261,0 2.502,3.383 3.611,5.449c1.027,1.913 2.732,6.531 3.751,10.159l0.608,2.164l-0.071,-3.555c-0.078,-3.891 -0.276,-5.116 -1.156,-7.155c-0.744,-1.725 -0.492,-2.033 0.968,-1.179c0.933,0.545 1.62,0.688 3.544,0.738c1.688,0.046 2.465,0.182 2.655,0.472c0.711,1.082 1.905,6.652 2.053,9.573c0.092,1.817 0.162,2.166 0.464,2.332c0.603,0.33 5.324,0.584 5.324,0.286c-0,-0.152 -0.188,-1.698 -0.418,-3.436c-0.527,-3.996 -1.21,-6.726 -2.044,-8.172c-0.899,-1.557 -2.739,-3.348 -3.446,-3.354c-0.728,-0.015 -1.047,-0.372 -0.967,-1.114c0.055,-0.517 0.2,-0.57 1.321,-0.486c0.693,0.053 1.98,-0.046 2.859,-0.221c2.04,-0.402 3.698,-1.845 5.695,-4.955c1.57,-2.445 1.591,-2.455 4.018,-1.858c1.714,0.421 5.635,2.496 7.072,3.742c1.852,1.606 3.255,4.715 3.255,7.214c-0,1.654 -0.937,3.329 -2.521,4.505c-0.692,0.513 -1.662,1.506 -2.156,2.205c-0.851,1.206 -1.818,3.617 -1.695,4.228c0.118,0.586 4.332,-2.253 6.563,-4.422l0.782,-0.759l0.397,0.729c0.219,0.401 1.025,1.876 1.791,3.278c2.497,4.568 3.001,7.302 2.159,11.707c-0.811,4.237 -1.431,5.286 -4.363,7.377l-1.546,1.103l-3.032,-0.069c-1.667,-0.038 -3.315,-0.146 -3.662,-0.244l-0.632,-0.179l0,4.663c0,3.963 0.039,4.663 0.256,4.663c0.508,0 3.555,-1.317 4.459,-1.928c1.312,-0.887 2.639,-2.392 2.847,-3.23c0.097,-0.392 0.277,-0.714 0.398,-0.714c0.526,0 3.84,7.49 4.573,10.332c0.821,3.185 0.893,8.174 0.155,10.761c-0.454,1.593 -1.521,3.631 -2.091,3.996l-0.496,0.318l0.633,0.847c0.795,1.063 1.957,3.374 2.288,4.551c0.39,1.385 0.508,3.031 0.276,3.856c-0.113,0.4 -1.249,2.605 -2.525,4.9c-1.953,3.513 -2.403,4.502 -2.851,6.262c-0.991,3.896 -1.402,10.107 -0.805,12.168c0.513,1.77 1.218,2.586 2.232,2.586c0.497,0 0.951,0.142 1.009,0.315c0.059,0.173 -0.043,0.764 -0.222,1.313c-0.18,0.549 -0.499,1.973 -0.708,3.163c-0.21,1.19 -0.57,2.854 -0.801,3.699c-0.494,1.812 -2.168,4.851 -3.154,5.727c-0.951,0.845 -2.49,1.325 -3.462,1.08c-1.154,-0.292 -3.893,-2.849 -4.57,-4.268c-0.439,-0.919 -0.969,-2.999 -0.974,-3.819c0,-0.484 -0.157,-0.761 -0.551,-0.991c-1.567,-0.916 -5.462,-0.761 -5.619,0.224c-0.807,5.059 -4.439,8.929 -7.542,8.036c-2.046,-0.588 -3.997,-3.256 -4.712,-6.443c-0.789,-3.518 -1.479,-5.805 -2.05,-6.8c-0.342,-0.595 -0.653,-0.93 -0.69,-0.744c-0.039,0.185 -0.438,1.437 -0.891,2.781c-1.125,3.335 -2.311,5.68 -3.798,7.506c-1.586,1.945 -2.695,2.438 -4.305,1.91c-2.302,-0.755 -3.825,-2.8 -4.295,-5.768c-0.253,-1.599 -0.269,-1.627 -1.099,-1.954c-0.463,-0.182 -2.126,-0.331 -3.696,-0.331c-3.436,-0 -5.479,0.682 -8.755,2.922c-2.036,1.393 -2.124,1.49 -2.492,2.764c-0.616,2.13 -1.315,3.476 -2.25,4.331c-0.727,0.666 -1.108,0.8 -2.256,0.8c-1.213,0 -1.5,-0.114 -2.355,-0.94l-0,0.005Zm39.537,-17.349c1.158,-1.178 1.552,-2.974 1.625,-7.403c0.072,-4.374 -0.113,-6.108 -1.018,-9.541c-0.759,-2.881 -2.125,-5.666 -3.337,-6.801c-0.442,-0.414 -0.672,-0.838 -0.672,-1.241c-0,-0.514 0.115,-0.611 0.722,-0.611c1.51,-0 4.041,-1.697 5.604,-3.758l0.757,-0.997l-1.721,-0.709c-1.322,-0.544 -1.939,-0.979 -2.658,-1.872c-0.515,-0.64 -0.983,-1.204 -1.039,-1.253c-0.057,-0.046 -0.202,0.368 -0.322,0.927c-0.121,0.559 -0.815,3.054 -1.542,5.544c-1.691,5.787 -1.96,7.26 -2.198,12.053c-0.173,3.484 -0.162,4.122 0.102,5.872c0.389,2.577 0.942,3.663 1.867,3.663c0.52,0 0.842,-0.233 1.32,-0.957c0.718,-1.085 1.239,-1.031 1.056,0.111c-0.222,1.39 -1.106,7.667 -1.106,7.852c-0,0.437 1.91,-0.218 2.56,-0.879l-0,-0Zm15.795,-3.524l2.61,0.19l0.55,-4.564c0.669,-5.55 0.684,-6.086 0.166,-5.87c-0.209,0.086 -1.25,0.535 -2.316,0.996c-1.755,0.76 -2.129,0.82 -3.999,0.646l-2.063,-0.192l0,2.555c-0.001,1.405 0.127,3.469 0.282,4.585l0.284,2.031l0.938,-0.284c0.517,-0.156 2.114,-0.198 3.549,-0.093l-0.001,-0Zm-46.225,-1.289c0.684,-0.521 1.177,-1.083 1.175,-1.338c-0.043,-5.31 -1.06,-20.423 -1.422,-21.101c-0.157,-0.292 -3.04,0.349 -3.399,0.756c-0.175,0.199 -0.224,1.301 -0.214,4.828c0.013,4.93 0.327,8.231 1.412,14.933c0.281,1.739 0.511,3.21 0.511,3.268c0,0.118 0.206,-0.023 1.937,-1.345l-0,-0.001Zm16.222,-3.709c0.096,-0.807 0.217,-2.15 0.27,-2.984l0.096,-1.517l-2.821,0.201c-2.495,0.177 -5.639,0.764 -6.989,1.305c-0.448,0.179 -0.463,0.252 -0.463,2.211l-0,2.026l2.652,-0.252c3.326,-0.314 5.158,-0.2 6.972,0.44c0.06,0.022 0.188,-0.623 0.283,-1.43l0,0Zm-7.155,-12.118l0.647,-0.016l-0.12,-4.404c-0.066,-2.422 -0.146,-4.455 -0.177,-4.518c-0.06,-0.124 -4.13,0.5 -4.2,0.644c-0.039,0.077 0.494,6.633 0.685,8.454c0.065,0.62 0.103,0.627 1.292,0.244c0.674,-0.217 1.517,-0.4 1.873,-0.407l0,0.003Zm7.443,-4.726c-0.066,-2.252 -0.171,-4.181 -0.232,-4.287c-0.062,-0.106 -0.434,-0.281 -0.828,-0.39l-0.715,-0.198l-0,1.192c-0,0.655 -0.05,2.673 -0.11,4.485l-0.11,3.293l2.116,-0l-0.121,-4.095Zm29.469,-3.006c0.802,-0.369 2.323,-1.52 3.782,-2.861l2.442,-2.243l-0.758,-0.211c-2.513,-0.698 -7.691,0.046 -10.739,1.542l-1.73,0.849l0.551,0.934c0.843,1.426 1.037,1.649 2.008,2.312c1.071,0.73 2.367,0.636 4.444,-0.322l0,0Zm-14.987,-22.286c0.765,-1.07 2.556,-2.755 2.928,-2.755c0.081,-0 0.529,0.472 0.997,1.05c1.131,1.397 3.365,2.349 5.511,2.349l1.587,0l0,-1.325c0,-0.729 0.113,-2.989 0.251,-5.022c0.138,-2.034 0.252,-3.749 0.253,-3.813c0,-0.061 -0.244,-0.023 -0.543,0.084c-2.489,0.913 -5.1,0.831 -7.329,-0.23c-0.87,-0.414 -0.872,-0.413 -1.34,0.503c-1.108,2.166 -3.92,6.241 -4.894,7.091c-0.718,0.627 -1.444,0.986 -2.27,1.122l-1.214,0.199l0.886,1.391c0.487,0.765 1.152,2.097 1.478,2.961l0.593,1.57l1.128,-1.994c0.621,-1.097 1.511,-2.529 1.978,-3.182l0,0.001Zm-24.223,3.723c1.001,-0.347 1.904,-0.683 2.007,-0.747c0.127,-0.08 0.009,-1.558 -0.365,-4.61c-1.027,-8.359 -1.353,-9.69 -2.751,-11.226c-0.494,-0.543 -1.098,-1.03 -1.343,-1.082c-0.308,-0.069 -0.444,-0.277 -0.444,-0.69c0,-0.424 0.326,-0.898 1.134,-1.649c0.801,-0.744 1.457,-1.693 2.232,-3.228c0.603,-1.196 1.097,-2.306 1.097,-2.465c-0,-0.386 -1.018,-0.106 -4.291,1.183c-2.297,0.905 -5.627,2.494 -6.487,3.097c-0.176,0.124 -0.08,0.312 0.32,0.623c1.512,1.179 3.279,3.987 4.146,6.588c0.255,0.765 0.602,1.635 0.771,1.933c0.431,0.759 0.712,3.056 1.42,11.589c0.129,1.563 0.065,1.546 2.554,0.684l0,-0Zm13.833,-6.535c0.427,-0.314 0.363,-0.405 -1.405,-1.987c-1.019,-0.912 -1.936,-1.66 -2.038,-1.662c-0.218,0 -1.165,3.734 -1.304,5.146l-0.096,0.978l2.197,-1.073c1.209,-0.59 2.399,-1.221 2.645,-1.402l0.001,0Zm2.492,-12.336c0.934,-0.809 2.755,-3.42 2.755,-3.948c-0,-0.475 -2.954,-1.633 -5.641,-2.21c-1.575,-0.338 -3.071,-0.66 -3.326,-0.714c-0.613,-0.131 -0.586,-0.023 0.18,0.692c0.784,0.735 2.681,4.39 2.825,5.445c0.058,0.422 0.075,1.231 0.039,1.797l-0.066,1.031l1.1,-0.597c0.604,-0.329 1.565,-1.002 2.133,-1.495l0.001,-0.001Z" style="fill-rule:nonzero;"/><path id="path102-7-5" d="M409.105,124.378c-0.561,-0.406 -1.385,-1.269 -1.831,-1.918l-0.811,-1.18l-1.41,0.14c-2.658,0.266 -4.952,-0.741 -6.953,-4.643c-2.49,-4.858 -1.027,-3.831 -4.8,-3.861c-0.796,-0.294 -8.38,-0.273 -11.507,0.03c-2.141,0.209 -3.238,0.476 -4.71,1.143c-1.869,0.847 -1.972,0.94 -4.032,3.614c-2.076,2.695 -4.424,4.792 -7.568,6.758c-1.23,0.77 -3.808,1.025 -5.775,0.572c-2.121,-0.488 -5.249,-2.511 -7.178,-4.643c-1.322,-1.459 -4.201,-5.918 -5.37,-8.315c-0.82,-1.683 -1.217,-2.198 -2.616,-3.402c-0.908,-0.78 -2.121,-1.679 -2.697,-1.997c-0.785,-0.435 -1.046,-0.72 -1.046,-1.142c-0,-0.494 0.192,-0.585 1.57,-0.748c1.846,-0.219 3.267,-1.062 4.069,-2.415c0.716,-1.21 0.851,-2.158 0.49,-3.465c-0.157,-0.568 -0.285,-1.315 -0.285,-1.66c-0,-0.534 0.07,-0.596 0.479,-0.417c0.264,0.116 1.62,0.282 3.013,0.368c4.042,0.251 6.533,-0.822 9.822,-4.226c1.527,-1.581 3.443,-4.493 3.215,-4.886c-0.059,-0.103 -0.839,0.154 -1.733,0.571c-0.895,0.417 -2.726,1.251 -4.069,1.854c-1.343,0.603 -3.339,1.511 -4.436,2.018c-3.88,1.794 -5.946,0.581 -7.883,-4.63c-0.53,-1.426 -0.571,-1.718 -0.56,-3.978c0.018,-3.842 0.82,-6.697 3.15,-11.239l1.115,-2.173l-0.49,-0.188c-3.923,-1.498 -5.461,-3.772 -5.461,-8.074c-0,-2.341 0.56,-5.16 1.983,-9.98l1.244,-4.217l0,-2.861c0,-2.047 -0.09,-3.266 -0.318,-4.283c-0.343,-1.537 -1.16,-2.945 -1.707,-2.945c-0.188,-0 -0.388,-0.212 -0.446,-0.472c-0.2,-0.901 0.177,-1.063 1.754,-0.753c1.125,0.22 2.354,0.185 4.696,-0.136c5.585,-0.766 9.852,-3.17 13.9,-7.829c1.397,-1.607 2.105,-2.867 2.69,-4.784c0.64,-2.097 0.607,-3.601 -0.104,-4.748c-0.825,-1.33 -1.49,-1.82 -2.699,-1.988c-0.73,-0.101 -1.12,-0.295 -1.186,-0.59c-0.161,-0.725 0.018,-0.898 1.164,-1.114c1.309,-0.247 2.191,-0.609 3.362,-1.379c0.48,-0.315 1.19,-0.713 1.578,-0.884c1.351,-0.594 1.881,-2.33 1.115,-3.652c-0.197,-0.342 -0.335,-0.84 -0.305,-1.108c0.046,-0.413 0.383,-0.495 2.235,-0.547c1.769,-0.052 2.575,-0.232 4.274,-0.971c3.571,-1.555 5.37,-2.002 7.936,-1.973c1.711,0.022 2.785,0.197 3.925,0.65c2.389,0.946 3.29,1.227 3.437,1.069c0.158,-0.168 3.707,2.077 4.849,3.068c1.807,1.568 2.965,4.183 2.965,6.696c0,1.535 -0.397,2.073 -2.062,2.797l-1.132,0.492l1.118,1.297c0.614,0.713 1.409,1.745 1.766,2.293c0.774,1.189 1.617,1.936 5.979,5.307c4.048,3.128 5.201,3.65 8.112,3.672c2.615,0.022 3.6,-0.433 6.869,-3.153c1.186,-0.987 2.34,-1.829 2.564,-1.873c0.65,-0.125 0.625,0.849 -0.045,1.803c-2.212,3.149 -3.073,5.237 -2.58,6.262c0.432,0.9 1.745,0.547 3.405,-0.915c0.847,-0.745 1.673,-1.355 1.836,-1.355c0.244,-0 0.51,0.554 0.51,1.064c-0,0.06 -0.648,0.639 -1.439,1.284c-1.569,1.278 -1.958,1.869 -2.094,3.183c-0.252,2.425 1.693,2.668 4.133,0.515c0.856,-0.755 1.452,-1.118 1.552,-0.946c0.292,0.505 -0.027,1.189 -0.997,2.133c-1.205,1.174 -1.29,1.363 -1.508,3.338c-0.137,1.24 -0.11,2.649 0.113,5.931c0.378,5.569 0.203,8.206 -0.761,11.462c-1.203,4.063 -2.08,5.054 -5.366,6.063c-1.151,0.354 -2.351,0.737 -2.665,0.851l-0.571,0.209l1.121,1.401c1.394,1.743 2.42,3.952 3.196,6.881c0.907,3.419 1.039,4.724 0.676,6.671c-0.458,2.456 -1.056,3.749 -2.172,4.695c-0.899,0.762 -1.18,0.84 -3.37,0.935c-2.019,0.088 -2.75,-0.015 -4.71,-0.672c-1.276,-0.428 -2.987,-1.12 -3.803,-1.54c-0.815,-0.419 -2.077,-0.887 -2.803,-1.039c-0.726,-0.153 -1.55,-0.374 -1.831,-0.492l-0.512,-0.215l0.349,0.695c0.761,1.516 4.114,5.537 5.879,7.05c1.937,1.661 3.003,2.297 7.335,4.372c4.605,2.207 5.96,2.935 6.406,6.435c0.152,1.189 -0.164,2.92 -0.564,3.966l-0.619,1.617l0.115,2.93c0.198,5.021 -0.39,6.876 -2.603,8.215c-0.672,0.407 -1.397,0.741 -1.612,0.745c-0.263,0 -0.533,0.398 -0.829,1.208c-0.242,0.661 -0.767,1.576 -1.167,2.033c-0.655,0.75 -0.899,0.839 -2.484,0.913c-1.537,0.074 -1.887,-0.015 -2.779,-0.656l0,0.001Zm-31.935,-24.522c1.008,-0.091 2.813,-0.44 4.013,-0.775c3.773,-1.054 11.667,-1.12 14.016,-0.117c0.339,0.144 0.378,0.03 0.411,-1.225c0.022,-0.829 0.292,-2.377 0.673,-3.852c0.351,-1.356 0.954,-3.686 1.341,-5.177c0.406,-1.562 0.712,-3.217 0.722,-3.905l0.018,-1.195l-2.006,-0.554c-2.288,-0.632 -11.448,-1.022 -14.274,-0.607l-1.626,0.238l0.54,1.287c0.298,0.707 1.446,2.443 2.552,3.856c1.106,1.413 2.058,2.779 2.115,3.035c0.169,0.761 -0.294,0.998 -1.955,1.003c-1.713,-0 -3.832,0.841 -5.517,2.176c-0.825,0.654 -2.186,2.403 -4.163,5.35l-0.61,0.909l0.959,-0.141c0.528,-0.077 1.784,-0.216 2.791,-0.307l0,0.001Zm-13.812,-31.186c0.606,-0.17 2.294,-0.901 3.751,-1.624c1.456,-0.723 3.588,-1.676 4.737,-2.116c1.149,-0.441 2.113,-0.842 2.142,-0.893c0.058,-0.1 -0.205,-3.453 -0.506,-6.431c-0.135,-1.341 -0.289,-1.982 -0.529,-2.204c-0.61,-0.563 -3.324,-0.849 -5.755,-0.606l-2.384,0.239l-1.104,1.655c-0.608,0.91 -1.576,2.246 -2.151,2.969c-1.251,1.57 -4.692,6.34 -4.753,6.589c-0.023,0.096 0.326,0.578 0.777,1.07c1.373,1.498 3.487,1.993 5.775,1.352l0,0Zm41.548,-6.113c-0,-0.053 -0.462,-0.722 -1.026,-1.478c-0.574,-0.77 -1.563,-2.616 -2.244,-4.19c-0.67,-1.547 -1.452,-3.191 -1.737,-3.652l-0.519,-0.838l-0.852,0.63c-0.468,0.347 -1.599,0.826 -2.514,1.065c-2.909,0.76 -2.683,0.457 -2.865,3.846c-0.087,1.607 -0.126,2.972 -0.088,3.033c0.04,0.06 2.072,0.399 4.518,0.751c6.209,0.89 7.327,1.017 7.327,0.833l-0,-0Zm-27.212,-21.719c4.182,-0.792 8.39,-1.15 11.425,-0.972c1.631,0.095 3.162,0.27 3.402,0.388c0.256,0.126 -0.21,-0.681 -1.134,-1.961c-1.164,-1.612 -2.292,-2.785 -4.36,-4.532l-2.79,-2.357l-1.833,1.669c-1.007,0.918 -2.46,2.311 -3.227,3.094c-0.768,0.784 -1.867,1.836 -2.443,2.338c-0.575,0.501 -1.439,1.408 -1.918,2.015l-0.873,1.103l0.698,-0.17c0.384,-0.093 1.758,-0.371 3.053,-0.616l-0,0.001Z" style="fill-rule:nonzero;"/><path id="path133-0" d="M66.619,5.357c-0.209,-0 -0.403,0.104 -0.556,0.236c-0.125,0.105 -0.369,0.265 -0.543,0.355c-0.174,0.09 -0.382,0.223 -0.459,0.292c-0.076,0.07 -0.237,0.174 -0.362,0.23c-0.118,0.069 -0.438,0.313 -0.71,0.563c-0.459,0.424 -0.689,0.598 -1.295,0.986c-0.125,0.083 -0.229,0.194 -0.229,0.25c-0,0.069 0.215,0.542 0.48,1.077c0.48,0.97 0.48,0.975 0.48,1.577c-0,0.598 -0.003,0.612 -0.341,1.144c-0.188,0.299 -0.39,0.697 -0.452,0.889c-0.07,0.188 -0.202,0.48 -0.313,0.633c-0.202,0.292 -2.009,2.165 -2.202,2.281c-0.07,0.069 -0.334,0.327 -0.612,0.646c-0.272,0.32 -0.706,0.735 -0.957,0.921c-0.251,0.188 -0.599,0.459 -0.766,0.605c-0.167,0.146 -0.424,0.307 -0.57,0.355c-0.146,0.07 -0.362,0.167 -0.487,0.272c-0.125,0.104 -0.306,0.243 -0.41,0.313c-0.098,0.069 -0.181,0.187 -0.181,0.264c0,0.111 -0.069,0.139 -0.285,0.139c-0.215,-0 -0.32,-0.07 -0.445,-0.181c-0.229,-0.264 -0.396,-0.785 -0.403,-1.261c-0.003,-0.229 -0.07,-0.633 -0.084,-0.902c-0.076,-0.452 -0.07,-0.508 0.07,-0.74c0.083,-0.139 0.167,-0.362 0.194,-0.501c0,-0.139 0.112,-0.292 0.209,-0.354c0.09,-0.07 0.23,-0.251 0.313,-0.425c0.084,-0.174 0.383,-0.57 0.675,-0.879c0.584,-0.626 1.044,-1.348 1.044,-1.643c-0,-0.104 0.069,-0.368 0.097,-0.584c0.132,-0.501 0.258,-1.337 0.258,-1.687c-0,-0.18 -0.105,-0.493 -0.313,-0.91c-0.334,-0.689 -0.299,-0.647 -1.652,-1.553c-1.046,-0.698 -1.893,-1.054 -2.694,-1.131c-0.237,-0 -0.57,-0.098 -0.746,-0.16c-0.223,-0.083 -0.605,-0.125 -1.244,-0.139l-1.102,-0c-0.097,-0.006 -0.753,-0 -1.457,0.076c-0.704,0.07 -1.695,0.084 -2.203,0.084c-0.854,-0 -0.96,-0 -1.386,-0.202c-0.439,-0.188 -0.515,-0.202 -1.529,-0.195c-0.584,0.002 -1.126,0 -1.199,-0.069c-0.091,-0.07 -0.181,-0.07 -0.285,0.003c-0.285,0.132 -0.633,0.229 -0.875,0.229c-0.133,0 -0.369,0.07 -0.522,0.139c-0.341,0.174 -0.48,0.174 -0.777,0c-0.215,-0.104 -0.257,-0.104 -0.688,0.07c-0.251,0.083 -0.529,0.194 -0.619,0.25c-0.209,0.125 -1.341,0.299 -2.397,0.362c-0.775,0.069 -0.819,0.069 -1.002,0.445c-0.09,0.188 -0.299,0.542 -0.473,0.791c-0.167,0.251 -0.375,0.585 -0.459,0.747c-0.083,0.16 -0.327,0.487 -0.549,0.721c-0.223,0.236 -0.619,0.675 -0.884,0.976c-0.397,0.445 -0.578,0.591 -0.998,0.792c-0.285,0.132 -0.633,0.264 -0.783,0.292c-0.327,0.07 -0.682,0.348 -0.682,0.55c-0,0.076 0.118,0.299 0.257,0.479c0.223,0.3 0.313,0.355 0.715,0.46c0.341,0.09 0.487,0.173 0.578,0.313c0.069,0.104 0.285,0.375 0.493,0.598c0.209,0.229 0.494,0.598 0.633,0.818c0.14,0.222 0.39,0.577 0.557,0.797c0.64,0.849 1.07,1.941 1.246,3.196c0.07,0.334 0.132,0.795 0.195,1.03c0.069,0.258 0.132,0.973 0.16,1.813c-0,0.786 0.09,1.495 0.139,1.637c0.083,0.229 0.069,0.278 -0.076,0.528c-0.091,0.153 -0.313,0.424 -0.494,0.605c-0.272,0.278 -0.425,0.362 -0.959,0.529c-0.348,0.111 -0.863,0.306 -1.14,0.438c-0.626,0.292 -1.602,0.501 -2.624,0.563c-0.953,0.07 -1.011,0 -1.062,-0.542c0,-0.299 -0.084,-0.452 -0.215,-0.598c-0.223,-0.237 -0.23,-0.487 -0,-0.812c0.083,-0.139 0.292,-0.612 0.459,-1.05c0.167,-0.438 0.354,-0.874 0.41,-0.961c0.306,-0.48 0.591,-2.119 0.515,-2.956c-0.07,-0.542 -0.557,-2.139 -0.928,-2.924c-0.313,-0.661 -0.914,-1.623 -1.449,-2.322c-0.223,-0.292 -0.48,-0.647 -0.57,-0.78c-0.223,-0.334 -1.606,-1.692 -2.005,-1.967c-0.174,-0.119 -0.598,-0.466 -0.939,-0.767c-0.731,-0.647 -1.629,-1.2 -1.938,-1.202c-0.118,-0.001 -0.41,-0.07 -0.639,-0.098c-0.237,-0.07 -0.619,-0.118 -0.853,-0.146c-0.237,0 -0.619,-0.097 -0.854,-0.153c-1.03,-0.257 -1.572,-0.41 -1.694,-0.473c-0.278,-0.139 -0.723,-0.069 -1.401,0.23c-0.368,0.167 -0.843,0.354 -1.051,0.431c-0.411,0.146 -0.95,0.591 -1.496,1.248c-0.313,0.382 -0.793,0.743 -1.395,1.063c-0.16,0.084 -0.466,0.25 -0.682,0.369c-0.215,0.118 -0.507,0.236 -0.639,0.271c-0.32,0.07 -0.829,0.299 -1.115,0.515c-0.125,0.097 -0.438,0.264 -0.688,0.382c-0.25,0.119 -0.494,0.258 -0.543,0.313c-0.069,0.07 -0.271,0.153 -0.5,0.216c-0.383,0.104 -0.418,0.132 -0.418,0.32c0,0.167 0.167,0.347 0.962,1.066c0.529,0.48 0.987,0.913 1.018,0.969c-0,0.069 0.327,0.382 0.653,0.725c0.972,1.013 2.262,2.477 2.673,3.033c0.528,0.715 0.734,0.969 1.129,1.382c1.496,1.568 2.266,2.528 2.699,3.365c0.076,0.154 0.515,0.633 0.976,1.076c0.907,0.87 0.978,1.01 0.682,1.352c-0.125,0.146 -0.223,0.181 -0.494,0.181c-0.25,-0 -0.424,0.069 -0.681,0.208c-0.383,0.237 -0.689,0.313 -1.622,0.431c-0.355,0.07 -0.79,0.126 -0.973,0.181c-0.181,0.07 -0.383,0.098 -0.446,0.098c-0.069,-0 -0.5,0.132 -0.981,0.292c-1.014,0.341 -1.783,0.431 -2.189,0.257c-0.473,-0.202 -0.969,-0.66 -1.16,-1.078c-0.097,-0.222 -0.369,-0.584 -0.605,-0.829l-0.424,-0.438l-0.258,0.083c-0.146,0.07 -0.403,0.209 -0.577,0.362c-0.174,0.153 -0.383,0.278 -0.459,0.278c-0.125,0 -0.306,0.153 -1.144,0.96c-0.139,0.139 -0.292,0.25 -0.326,0.25c-0.07,0 -0.112,0.07 -0.167,0.119c-0.07,0.069 -0.209,0.188 -0.348,0.271c-0.431,0.271 -2.088,1.805 -2.21,2.045c-0.348,0.681 -0.592,1.094 -0.701,1.19c-0.069,0.069 -0.18,0.257 -0.243,0.438c-0.07,0.181 -0.244,0.487 -0.383,0.675l-0.264,0.34l-0,2.915l0.264,0.542c0.146,0.299 0.264,0.571 0.264,0.605c0,0.125 0.809,1.345 1.093,1.644c0.327,0.341 0.654,0.508 1.289,0.647c0.236,0.07 0.522,0.119 0.64,0.153c0.654,0.181 2.475,0.23 4.101,0.105c2.164,-0.167 3.253,-0.244 4.073,-0.285c1.394,-0.07 1.722,-0.105 2.216,-0.216c0.431,-0.097 1.247,-0.222 2.974,-0.459c0.271,-0.069 1.009,-0.069 1.635,-0.069c0.982,-0 1.168,0.069 1.368,0.159c0.139,0.084 0.229,0.195 0.229,0.286c0,0.173 -0.514,0.818 -0.855,1.069c-0.132,0.098 -0.376,0.313 -0.536,0.48c-0.327,0.341 -0.924,0.712 -1.581,0.983c-0.251,0.104 -0.557,0.285 -0.675,0.41c-0.223,0.223 -0.424,0.32 -2.182,1.029c-0.452,0.181 -0.865,0.362 -0.923,0.396c-0.307,0.195 -0.983,0.522 -1.474,0.704c-0.76,0.285 -1.492,0.598 -1.87,0.792c-0.174,0.09 -0.521,0.243 -0.78,0.334c-1.907,0.703 -2.604,0.869 -3.838,0.916c-0.897,-0 -0.999,-0 -1.564,-0.153c-0.334,-0.105 -0.796,-0.237 -1.03,-0.299c-0.237,-0.07 -0.48,-0.153 -0.543,-0.209c-0.097,-0.09 -0.125,-0.076 -0.202,0.104c-0.069,0.167 -0.069,0.376 0.07,1.122c0.132,0.872 0.278,3.547 0.25,4.685c-0.006,0.271 0,0.744 0.07,1.048c0.069,0.528 0.069,0.556 -0.091,0.729c-0.16,0.167 -0.16,0.187 -0.069,0.305c0.083,0.098 0.118,0.272 0.125,0.626c-0,0.8 0.215,1.683 0.528,2.245c0.07,0.111 0.105,0.375 0.105,0.626c-0,0.32 0.069,0.528 0.174,0.784c0.097,0.188 0.208,0.368 0.25,0.389c0.069,0 0.069,0.105 0.069,0.181c0,0.076 0.223,0.383 0.501,0.675c0.272,0.292 0.501,0.563 0.501,0.605c0,0.069 0.084,0.069 0.181,0.069c0.111,0 0.278,0.098 0.431,0.251c0.139,0.139 0.563,0.459 0.945,0.71c0.571,0.383 0.747,0.459 0.988,0.459c0.375,0 0.445,0.119 0.188,0.32c-0.195,0.154 -0.202,0.174 -0.111,0.404c0.201,0.494 0.194,0.535 -0.174,0.901c-0.285,0.279 -0.418,0.355 -0.765,0.431c-0.389,0.084 -0.459,0.133 -1.101,0.783c-0.376,0.382 -0.806,0.782 -0.954,0.892c-0.229,0.167 -0.264,0.23 -0.229,0.397c-0,0.132 -0,0.278 -0.119,0.466c-0.139,0.236 -0.166,0.396 -0.188,1.058l0,0.782l0.32,0.661c0.487,0.997 1.016,1.778 1.336,1.979c0.153,0.098 0.396,0.279 0.542,0.404c0.146,0.125 0.334,0.278 0.418,0.334c0.083,0.069 0.34,0.236 0.57,0.396c0.229,0.16 0.501,0.313 0.591,0.348c0.098,-0 0.271,0.125 0.39,0.209c0.118,0.083 0.368,0.243 0.556,0.354c0.487,0.278 0.808,0.584 1.087,1.018c0.216,0.334 0.25,0.452 0.285,1.001c0.07,0.577 0.397,1.982 0.591,2.355c0.07,0.076 0.077,0.236 0.077,0.361c-0,0.195 -0.07,0.237 -0.306,0.355c-0.174,0.076 -0.341,0.209 -0.383,0.306c-0.069,0.098 -0.215,0.285 -0.389,0.418c-0.167,0.132 -0.452,0.382 -0.626,0.563c-0.174,0.181 -0.445,0.382 -0.591,0.452c-0.146,0.07 -0.265,0.16 -0.265,0.209c0,0.139 0.856,1.771 1.091,2.084c0.452,0.605 1.343,1.581 1.658,1.827c0.612,0.473 1.228,1.106 1.346,1.375c0.132,0.306 0.243,0.784 0.271,1.188c0,0.153 0.07,0.293 0.104,0.307c0.14,0.069 0.23,0.361 0.154,0.507c-0.091,0.174 -0.46,0.313 -0.675,0.265c-0.098,-0 -0.264,-0 -0.376,0.069c-0.292,0.118 -1.211,0.271 -1.6,0.278c-0.181,0.001 -0.355,0 -0.376,0.07c0,0.07 -0.354,0.07 -0.743,0.07c-0.948,-0 -2.15,0.125 -2.266,0.243c-0.076,0.076 -0.076,0.111 0,0.202c0.07,0.069 0.112,0.202 0.112,0.306c-0,0.208 -0.244,0.521 -0.404,0.521c-0.118,0 -0.118,0.126 0,0.782c0.397,1.968 0.431,2.044 1.344,2.958c0.759,0.761 1.27,1.149 1.915,1.453c0.209,0.097 0.355,0.236 0.473,0.445c0.091,0.167 0.271,0.452 0.397,0.633c0.292,0.431 0.375,0.832 0.202,0.961c-0.07,0.069 -0.202,0.09 -0.293,0.09c-0.09,0 -0.319,0.077 -0.5,0.167c-0.313,0.16 -0.445,0.174 -1.935,0.216l-3.582,-0c-1.868,-0.07 -1.994,-0.077 -2.191,-0.223c-0.139,-0.104 -0.264,-0.139 -0.383,-0.111c-0.194,0.07 -0.208,0.139 -0.097,0.786c0.069,0.306 0.069,0.612 -0,1.036c-0.105,0.841 -0.209,1.427 -0.285,1.604c-0.105,0.25 0.208,0.831 0.577,1.068c0.167,0.111 0.431,0.292 0.577,0.41c0.306,0.236 1.155,0.762 1.97,1.225c0.299,0.167 0.823,0.389 1.173,0.494c0.348,0.104 0.844,0.25 1.097,0.327c0.362,0.104 0.773,0.146 1.849,0.174c1.184,-0 1.452,0.069 1.83,0.187c0.633,0.223 0.984,0.578 1.049,1.054c0,0.202 0.07,0.369 0,0.376c0,-0 -0.125,0.083 -0.25,0.174c-0.125,0.09 -0.264,0.16 -0.306,0.16c-0.069,-0 -0.215,0.132 -0.382,0.285c-0.209,0.194 -0.48,0.347 -0.833,0.466c-0.522,0.18 -2.084,0.556 -2.835,0.674c-0.779,0.133 -1.259,0.216 -2.025,0.355c-0.668,0.125 -0.934,0.139 -1.849,0.097c-0.831,-0.069 -1.139,-0.083 -1.398,-0.194c-0.605,-0.258 -0.591,-0.278 -0.591,1.222c0.002,1.546 0.076,1.918 0.563,2.761c0.355,0.619 1.5,1.792 2.134,2.192c0.722,0.459 2.263,0.689 4.621,0.689c1.314,0.001 1.616,-0 2.524,-0.188c0.571,-0.104 1.224,-0.236 1.458,-0.299c0.236,-0.07 0.985,-0.146 1.669,-0.188c0.681,-0.069 1.386,-0.118 1.559,-0.174c0.174,-0.069 0.431,-0.104 0.57,-0.104c0.14,-0.001 0.383,-0.076 0.536,-0.174c0.23,-0.139 0.383,-0.174 0.755,-0.174c0.265,0 0.585,0.07 0.735,0.111c0.181,0.077 0.362,0.098 0.57,0.07c0.278,-0.07 0.32,-0 0.501,0.174c0.111,0.118 0.229,0.222 0.264,0.222c0.133,0 0.334,0.237 0.334,0.39c0,0.181 -0.25,0.32 -0.57,0.32c-0.133,-0 -0.237,0.069 -0.278,0.132c-0.07,0.076 -0.32,0.271 -0.626,0.438c-0.307,0.167 -0.599,0.341 -0.661,0.39c-0.07,0.069 -0.362,0.167 -0.668,0.25c-0.313,0.09 -0.714,0.271 -0.899,0.396c-0.187,0.126 -0.535,0.299 -0.778,0.376c-0.244,0.084 -0.48,0.174 -0.522,0.209c-0.07,-0 -0.216,0.097 -0.383,0.146c-0.389,0.111 -1.527,0.674 -1.643,0.815c-0.069,0.07 -0.222,0.126 -0.389,0.154c-0.167,-0 -0.396,0.104 -0.515,0.173c-0.118,0.07 -0.382,0.146 -0.584,0.174c-0.202,0 -0.591,0.16 -0.862,0.299c-0.271,0.133 -0.514,0.244 -0.549,0.244c-0,-0 -0.188,0.069 -0.341,0.153c-0.327,0.174 -0.789,0.313 -1.266,0.382c-0.188,0 -0.521,0.112 -0.746,0.188c-0.772,0.272 -2.093,0.487 -2.628,0.439c-0.577,-0.07 -0.501,0.187 0.25,0.792c0.265,0.215 0.887,0.768 1.385,1.232c0.5,0.466 1.084,0.972 1.302,1.126c0.216,0.153 0.564,0.417 0.765,0.591c0.202,0.167 0.557,0.438 0.794,0.598c0.236,0.16 0.494,0.341 0.57,0.41c0.181,0.153 1.222,0.591 1.742,0.733c0.619,0.167 2.169,0.431 4.265,0.718l-0.001,-0.002c1.026,0.139 2.261,0.077 3.377,-0.188c0.508,-0.118 1.116,-0.257 1.351,-0.313c0.236,-0.069 0.681,-0.194 0.995,-0.32c0.313,-0.125 0.695,-0.271 0.846,-0.327c0.439,-0.159 2.031,-0.938 2.424,-1.179c1.147,-0.707 2.63,-1.745 3.518,-2.46c0.139,-0.111 0.459,-0.354 0.711,-0.549c0.258,-0.188 0.584,-0.459 0.731,-0.598c0.146,-0.139 0.376,-0.313 0.508,-0.397c0.528,-0.32 0.661,-0.424 0.981,-0.82c0.292,-0.355 0.39,-0.432 0.747,-0.529c0.229,-0.07 0.542,-0.174 0.695,-0.243c0.16,-0.07 0.397,-0.153 0.536,-0.181c0.139,-0 0.375,-0.125 0.535,-0.216c0.543,-0.306 1.111,-0.41 2.13,-0.368c0.681,-0 1.036,0.076 1.351,0.181c0.292,0.104 0.605,0.153 1.009,0.153c0.543,0.001 0.619,-0 1.134,-0.285c0.306,-0.16 0.64,-0.362 0.743,-0.453c0.452,-0.375 1.246,-1.385 1.441,-1.821c0.111,-0.25 0.25,-0.543 0.299,-0.647c0.167,-0.313 0.118,-0.598 -0.16,-0.994c-0.139,-0.202 -0.285,-0.452 -0.327,-0.57c-0.069,-0.111 -0.097,-0.202 -0.132,-0.202c-0.111,-0 -0.556,-0.431 -0.605,-0.591c-0,-0.084 -0.118,-0.264 -0.209,-0.404c-0.271,-0.424 -0.278,-0.549 -0.069,-0.66c0.111,-0.07 0.389,-0.146 0.626,-0.195c0.236,-0.07 0.507,-0.139 0.605,-0.202c0.403,-0.257 0.556,-0.292 0.972,-0.209c0.299,0.07 0.5,0.07 0.802,-0.003c0.223,-0.069 0.557,-0.083 0.743,-0.083c0.494,-0 1.15,-0.188 1.632,-0.473c0.368,-0.216 0.445,-0.237 0.633,-0.174c0.326,0.111 0.5,0.09 0.756,-0.097c0.41,-0.299 0.598,-0.299 1.186,0.002c0.625,0.319 0.708,0.472 0.396,0.736c-0.118,0.098 -0.355,0.264 -0.522,0.362c-0.167,0.097 -0.633,0.501 -1.027,0.888c-0.598,0.584 -0.741,0.775 -0.843,1.082c-0.118,0.348 -0.153,0.383 -0.577,0.598c-0.292,0.146 -0.459,0.272 -0.459,0.348c-0,0.111 0.361,0.383 1.386,1.035c0.542,0.348 1.353,0.816 1.409,0.816c0.07,-0 1.203,0.633 2.026,1.129c0.362,0.222 0.764,0.459 0.889,0.535c0.515,0.306 1.236,0.793 1.454,0.98c0.132,0.111 0.278,0.202 0.333,0.202c0.07,0 0.397,0.223 0.763,0.494c0.368,0.271 0.823,0.584 1.017,0.689c0.195,0.104 0.55,0.347 0.782,0.542c0.237,0.188 0.584,0.431 0.78,0.529c0.195,0.097 0.515,0.306 0.72,0.459c0.327,0.243 0.756,0.5 1.772,1.046c0.16,0.084 0.591,0.293 0.96,0.466c0.369,0.174 0.948,0.48 1.28,0.682c1.128,0.697 1.424,0.858 1.823,0.996c0.223,0.076 0.445,0.174 0.501,0.216c0.07,0.069 0.215,0.104 0.362,0.139c0.146,-0 0.633,0.153 1.083,0.271c1.901,0.508 1.976,0.515 3.447,0.48c1.449,-0.07 1.624,-0.07 3.093,-0.403c0.751,-0.174 1.089,-0.216 1.563,-0.202c0.334,-0 0.882,-0 1.221,0.006c0.535,-0 0.64,-0.07 0.822,-0.188c0.111,-0.098 0.299,-0.195 0.417,-0.223c0.397,-0.097 0.598,-0.236 0.598,-0.424c0,-0.132 0.16,-0.299 0.689,-0.727c0.967,-0.774 1.125,-0.949 1.247,-1.385c0.327,-1.161 0.57,-2.343 0.626,-3.02c-0,-0.425 0.097,-0.969 0.146,-1.213c0.111,-0.556 -0,-1.744 -0.32,-3.159c-0.098,-0.459 -0.383,-1.124 -0.473,-1.124c0,0 -0.167,-0.16 -0.313,-0.354c-0.174,-0.23 -0.424,-0.439 -0.708,-0.599c-0.237,-0.132 -0.577,-0.32 -0.755,-0.417c-0.924,-0.508 -3.187,-1.965 -3.342,-2.15c-0.069,-0.07 -0.25,-0.181 -0.459,-0.272c-0.271,-0.125 -0.459,-0.285 -0.695,-0.591c-0.369,-0.487 -0.515,-0.738 -0.425,-0.738c0.07,0 0.07,-0.069 0.07,-0.118c-0.006,-0.084 0.076,-0.139 0.271,-0.188c0.244,-0.07 0.293,-0.07 0.404,0.09c0.167,0.209 0.375,0.168 0.403,-0.083c0,-0.25 0.279,-0.264 0.557,-0c0.111,0.09 0.361,0.215 0.556,0.278c0.522,0.16 0.816,0.272 1.157,0.424l0.306,0.14l0.146,-0.181c0.167,-0.209 0.452,-0.244 0.55,-0.07c0.069,0.112 0.076,0.112 0.25,0c0.16,-0.104 0.25,-0.111 0.689,-0.069c1.211,0.188 1.997,0.174 2.453,-0.07c0.438,-0.209 1.382,-1.14 1.611,-1.594c0.09,-0.181 0.326,-0.549 0.521,-0.824c0.952,-1.318 1.123,-1.602 1.361,-2.275c0.493,-1.402 0.493,-1.71 -0.07,-3.051c-0.382,-0.951 -2.087,-2.718 -3.28,-3.402c-0.369,-0.216 -0.369,-0.209 -0.619,0.285c-0.181,0.354 -0.188,0.473 -0.07,0.619c0.091,0.09 0.098,0.153 0,0.361c-0.097,0.293 -0.174,0.341 -0.765,0.459c-0.647,0.133 -5.318,0.133 -6.412,-0.003c-0.787,-0.097 -1.001,-0.229 -1.209,-0.759c-0.194,-0.501 -0.271,-1.411 -0.146,-1.722c0.077,-0.188 0.07,-0.285 -0.111,-0.784c-0.229,-0.661 -0.194,-0.753 0.216,-0.605c0.153,0.069 0.348,0.097 0.431,0.104c0.076,0.002 0.209,0.07 0.285,0.098c0.237,0.16 1.281,0.466 1.768,0.514c0.348,0.07 0.529,0 0.751,-0.069c0.16,-0.07 0.382,-0.119 0.5,-0.119c0.119,0 0.411,-0.097 0.654,-0.208c1.032,-0.487 1.518,-0.723 1.619,-0.78c0.313,-0.181 0.943,-0.438 1.217,-0.494c0.72,-0.16 0.961,-0.334 1.568,-1.139c0.105,-0.139 0.418,-0.487 0.689,-0.778c0.368,-0.383 0.528,-0.619 0.619,-0.889c0.069,-0.202 0.153,-0.404 0.188,-0.452c0.069,-0.07 0.069,-0.174 -0,-0.285c-0.111,-0.571 -0.174,-0.793 -0.271,-0.982c-0.07,-0.112 -0.209,-0.425 -0.341,-0.689c-0.125,-0.264 -0.299,-0.563 -0.376,-0.661c-0.188,-0.236 -0.812,-0.633 -1.513,-0.96c-0.313,-0.145 -0.744,-0.396 -0.958,-0.556c-0.494,-0.376 -0.661,-0.376 -0.844,0c-0.069,0.104 -0.194,0.181 -0.452,0.237c-0.202,0.069 -0.473,0.16 -0.598,0.257c-0.174,0.132 -0.32,0.174 -0.577,0.174c-0.376,-0 -1.487,0.299 -2.183,0.584c-1.177,0.487 -1.259,0.473 -1.339,-0.215c-0.07,-0.619 0.006,-0.871 0.334,-1.065c0.264,-0.153 0.521,-0.633 0.577,-1.082c-0,-0.174 0.097,-0.487 0.16,-0.688c0.111,-0.348 0.111,-0.39 -0.003,-0.626c-0.237,-0.501 -0.188,-0.619 0.57,-1.366c0.735,-0.721 1.088,-0.981 1.354,-0.997c0.09,-0.006 0.347,-0.139 0.57,-0.299c0.222,-0.16 0.535,-0.376 0.688,-0.473c0.16,-0.104 0.432,-0.362 0.606,-0.577c0.173,-0.216 0.438,-0.508 0.584,-0.654c0.146,-0.146 0.264,-0.292 0.264,-0.334c0,-0.069 0.153,-0.257 0.334,-0.487c0.327,-0.403 0.334,-0.417 0.32,-0.877c-0,-0.487 -0.139,-1.174 -0.376,-2.031c-0.076,-0.271 -0.153,-0.64 -0.18,-0.818c-0.07,-0.375 -0.557,-1.257 -0.752,-1.319c-0.167,-0.07 -0.851,-0.945 -1.214,-1.584c-0.718,-1.262 -0.804,-1.631 -0.549,-2.356c0.09,-0.25 0.139,-0.584 0.139,-0.942l0.003,-0.549l0.466,-0.494c0.257,-0.272 0.57,-0.529 0.695,-0.571c0.125,-0.069 0.313,-0.187 0.431,-0.333c0.174,-0.216 0.237,-0.251 0.425,-0.223c0.125,-0 0.271,0.006 0.327,-0c0.069,-0 0.32,-0.16 0.584,-0.285c0.264,-0.125 0.48,-0.25 0.48,-0.292c-0,-0.07 0.069,-0.084 0.125,-0.111c0.069,-0 0.223,-0.112 0.334,-0.202c0.118,-0.084 0.341,-0.202 0.5,-0.251c0.154,-0.069 0.418,-0.222 0.585,-0.382c0.167,-0.16 0.354,-0.341 0.424,-0.404c0.07,-0.069 0.243,-0.278 0.389,-0.479l0.265,-0.362l-0,-0.795c-0,-0.445 -0.077,-0.876 -0.125,-0.98c-0.07,-0.104 -0.112,-0.327 -0.14,-0.501c-0.118,-0.765 -0.883,-1.997 -1.809,-2.909c-0.445,-0.438 -0.473,-0.452 -0.749,-0.418c-0.55,0.077 -1.536,-0.493 -1.536,-0.884c-0,-0.112 -0.07,-0.223 -0.098,-0.258c-0.069,0 -0.118,-0.139 -0.146,-0.236c-0.069,-0.146 -0.003,-0.202 0.181,-0.299c0.119,-0.07 0.306,-0.126 0.418,-0.126c0.111,0 0.319,-0.09 0.472,-0.194c0.154,-0.111 0.376,-0.237 0.494,-0.292c0.209,-0.091 0.473,-0.272 1.185,-0.818c0.195,-0.153 0.466,-0.306 0.592,-0.341c0.167,-0.07 0.299,-0.167 0.452,-0.39c0.118,-0.18 0.341,-0.431 0.494,-0.563c0.153,-0.132 0.333,-0.376 0.396,-0.543c0.07,-0.167 0.195,-0.396 0.278,-0.514c0.195,-0.265 0.612,-1.112 0.612,-1.249c0,-0.07 0.098,-0.39 0.209,-0.741c0.487,-1.475 0.522,-1.683 0.515,-2.986c-0.006,-1.134 -0,-1.265 -0.251,-2.133c-0.132,-0.507 -0.306,-1.099 -0.382,-1.315c-0.077,-0.215 -0.209,-0.598 -0.285,-0.854c-0.084,-0.257 -0.264,-0.688 -0.411,-0.959c-0.146,-0.271 -0.403,-0.785 -0.577,-1.137c-0.174,-0.354 -0.341,-0.688 -0.375,-0.751c-0.14,-0.264 -0.501,-1.19 -0.564,-1.452c-0.069,-0.16 -0.118,-0.473 -0.181,-0.711c-0.159,-0.605 -0.549,-2.426 -0.605,-2.808c0,-0.18 -0.083,-0.32 -0.132,-0.32c-0.139,0 -1.087,0.809 -1.154,0.985c-0.083,0.215 -0.438,0.521 -1.217,1.044c-0.682,0.459 -1.036,0.633 -1.773,0.87c-0.843,0.271 -2.876,0.174 -3.305,-0.16c-0.07,-0 -0.243,-0.098 -0.459,-0.146c-0.563,-0.132 -2.041,-0.7 -2.416,-0.93c-0.174,-0.104 -0.825,-0.452 -1.44,-0.764c-0.865,-0.439 -1.212,-0.578 -1.528,-0.613c-0.223,0 -0.605,-0.139 -0.848,-0.257c-0.838,-0.403 -1.118,-0.986 -0.661,-1.373c0.119,-0.097 0.285,-0.195 0.376,-0.209c0.083,0 0.348,-0.069 0.584,-0.104c0.236,-0.07 0.647,-0.195 0.918,-0.334c0.564,-0.292 1.004,-0.452 1.226,-0.459c0.084,0 0.341,-0.069 0.571,-0.104c0.542,-0.139 2.437,-0.174 3.162,-0.07c0.549,0.091 0.94,0.258 1.268,0.564c0.098,0.09 0.369,0.243 0.605,0.347c0.285,0.125 0.564,0.327 0.835,0.605c0.431,0.439 0.689,0.55 1.137,0.473c0.125,0 0.55,-0.09 0.943,-0.146c1.241,-0.187 1.825,-0.305 1.905,-0.389c0.111,-0.111 0.493,-0.098 0.734,-0c0.397,0.209 0.473,0.139 0.619,-0.536c0,-0.097 0.139,-0.292 0.264,-0.424c0.126,-0.132 0.272,-0.362 0.327,-0.501c0.139,-0.347 0.293,-0.5 0.494,-0.5c0.091,-0 0.216,-0.07 0.272,-0.126c0.34,-0.396 0.403,-0.445 0.598,-0.445c0.167,0 0.34,-0.132 0.87,-0.64c0.362,-0.347 0.875,-0.84 1.134,-1.086c0.404,-0.383 0.487,-0.508 0.598,-0.871c0.07,-0.237 0.181,-0.578 0.258,-0.758c0.243,-0.605 0.146,-1.249 -0.327,-2.192c-0.376,-0.75 -1.329,-1.987 -1.666,-2.166c-0.097,-0.07 -0.376,-0.258 -0.605,-0.452c-0.23,-0.195 -0.682,-0.515 -0.995,-0.712c-0.313,-0.194 -0.74,-0.493 -0.943,-0.66c-0.818,-0.682 -0.944,-0.769 -1.123,-0.769c-0.202,-0 -0.431,0.202 -0.619,0.549c-0.32,0.599 -1.36,1.069 -1.97,0.886c-0.174,-0.07 -0.348,-0.07 -0.487,-0c-0.126,0.069 -0.237,0.069 -0.258,-0c0,-0 -0.222,-0 -0.452,0.083c-0.334,0.098 -0.57,0.112 -1.198,0.077c-0.85,-0.07 -1.97,0.069 -2.592,0.202c-0.216,0.069 -0.967,0.139 -1.67,0.18c-2.294,0.139 -2.704,0.181 -2.884,0.306c-0.292,0.202 -0.633,0.111 -0.633,-0.167c-0,-0.069 -0.076,-0.188 -0.181,-0.285c-0.354,-0.334 -0.188,-0.89 0.32,-1.038c0.174,-0.069 0.459,-0.166 0.64,-0.264c0.174,-0.097 0.417,-0.195 0.536,-0.223c0.118,0 0.333,-0.125 0.48,-0.222c0.257,-0.167 0.34,-0.23 0.751,-0.584c0.285,-0.237 0.792,-0.425 2.641,-0.942c0.258,-0.07 0.764,-0.264 1.133,-0.431l0.667,-0.299l1.593,0.003c1.331,0.003 1.613,-0 1.714,0.111c0.292,0.264 0.605,0.327 1.253,0.25c0.712,-0.084 0.785,-0.111 1.315,-0.563c0.215,-0.181 0.584,-0.473 0.816,-0.647c0.758,-0.557 1.831,-1.696 2.177,-2.316l0.313,-0.563l-0.006,-0.888c-0,-1.572 -0.376,-2.524 -1.221,-3.18c-0.881,-0.682 -1.38,-1.048 -1.68,-1.228c-0.167,-0.097 -0.411,-0.264 -0.543,-0.368c-0.132,-0.105 -0.403,-0.265 -0.598,-0.369c-0.195,-0.097 -0.522,-0.292 -0.727,-0.431c-0.202,-0.139 -0.494,-0.292 -0.64,-0.334c-0.146,-0.07 -0.348,-0.139 -0.445,-0.195c-0.209,-0.132 -0.921,-0.514 -1.564,-0.832c-0.736,-0.368 -2.083,-0.646 -3.376,-0.704c-0.369,-0 -0.668,-0.091 -1.153,-0.278c-0.514,-0.202 -0.688,-0.244 -0.829,-0.188c-0.223,0.083 -1.727,0.069 -1.963,-0.07c-0.098,-0.069 -0.355,-0.125 -0.571,-0.195c-0.215,-0.069 -0.528,-0.18 -0.697,-0.257c-0.195,-0.09 -0.411,-0.118 -0.619,-0.097l0.111,0.009Zm-31.945,38.427c0.069,-0.003 0.145,0 0.236,0.104c0.118,0.091 0.16,0.091 0.299,-0.003c0.111,-0.076 0.258,-0.09 0.487,-0.069c0.48,0.069 0.57,0.153 0.48,0.473c-0.07,0.188 -0.07,0.396 0.006,0.688c0.07,0.313 0.07,0.536 -0.006,0.876c-0.07,0.25 -0.084,0.712 -0.084,1.027c0,0.626 -0.146,1.383 -0.347,1.784c-0.07,0.14 -0.153,0.376 -0.174,0.522c-0.07,0.334 -0.334,0.647 -0.962,1.116c-0.264,0.194 -0.57,0.473 -0.675,0.605c-0.167,0.222 -0.508,0.487 -1.291,1.012c-0.271,0.18 -0.598,0.313 -1.403,0.556c-0.306,0.091 -0.584,0.188 -0.626,0.209c-0.243,0.146 -1.336,0.32 -2.193,0.348c-0.709,-0 -1.128,0.076 -1.599,0.194c-0.736,0.195 -0.715,0.258 0.112,0.341c0.758,0.077 1.948,0.369 3.227,0.792c0.584,0.194 1.21,0.396 1.386,0.445c0.174,0.069 0.668,0.194 1.094,0.32c0.931,0.271 2.613,1.068 3.206,1.524c0.788,0.605 0.963,0.705 1.328,0.763c0.202,-0 0.487,0.139 0.633,0.236c0.16,0.105 0.501,0.223 0.86,0.292c0.647,0.126 0.743,0.181 0.839,0.515c0.076,0.278 0.069,0.313 -0.536,0.508c-0.577,0.195 -1.17,0.292 -2.234,0.368l-0.001,0.001c-1.414,0.105 -2.712,0.133 -3.02,0.07c-0.772,-0.174 -2.096,-0.915 -2.99,-1.681c-0.953,-0.817 -1.613,-1.116 -2.84,-1.286c-0.704,-0.098 -1.321,-0.111 -3.483,-0.084c-0.313,0.003 -0.808,-0.003 -1.101,0l-0.536,0l-0.084,-0.319c-0.069,-0.174 -0.083,-0.46 -0.09,-0.633c-0.006,-0.299 0,-0.334 0.508,-0.796c0.584,-0.55 1.651,-1.171 2.126,-1.244c0.167,0 0.348,-0.076 0.397,-0.118c0.153,-0.118 0.104,-0.668 -0.091,-1.038c-0.111,-0.216 -0.16,-0.39 -0.132,-0.48c0.069,-0.188 0.947,-1.039 1.358,-1.318c0.438,-0.299 1.105,-0.882 1.822,-1.597c0.591,-0.591 0.899,-0.814 1.64,-1.194c0.389,-0.194 0.661,-0.431 2.11,-1.772c0.724,-0.675 1.192,-1.043 1.314,-1.043c0.243,0 0.536,-0.257 0.707,-0.619c0.118,-0.243 0.208,-0.361 0.32,-0.368l0.003,-0.027Zm22.058,0.846c0.07,-0 0.188,0.069 0.292,0.083c0.146,0.07 0.216,0.07 0.32,0c0.397,-0.25 0.893,0.126 1.188,0.892c0.201,0.522 0.746,1.094 1.545,1.621c0.313,0.209 0.633,0.452 0.719,0.543c0.084,0.09 0.341,0.327 0.578,0.521c0.236,0.195 0.493,0.46 0.577,0.585c0.083,0.125 0.355,0.341 0.598,0.48c0.41,0.229 0.98,0.731 1.514,1.33c0.118,0.132 0.383,0.327 0.584,0.431c0.418,0.223 0.571,0.418 0.605,0.763c0,0.236 0.006,0.243 -0.333,0.354c-0.195,0.07 -0.439,0.168 -0.536,0.23c-0.097,0.07 -0.334,0.153 -0.529,0.202c-0.194,0.069 -0.514,0.16 -0.71,0.25c-0.195,0.09 -0.55,0.216 -0.786,0.285c-0.236,0.07 -0.584,0.195 -0.781,0.292c-0.195,0.098 -0.55,0.223 -0.779,0.285c-0.39,0.112 -1.209,0.452 -2.291,0.959c-0.244,0.111 -0.501,0.208 -0.578,0.208c-0.146,0 -0.473,0.119 -0.978,0.362c-0.333,0.16 -0.791,0.174 -0.972,0.07c-0.16,-0.125 -0.341,-0.633 -0.341,-0.977c0,-0.355 0.07,-0.418 0.932,-1.605c0.355,-0.473 0.501,-0.77 0.605,-1.265c0.188,-0.858 0.133,-1.508 -0.334,-4.016c-0.069,-0.215 -0.104,-0.605 -0.139,-0.868c-0.083,-0.605 -0.222,-0.936 -0.452,-1.089c-0.104,-0.07 -0.18,-0.16 -0.18,-0.202c0.001,-0.125 0.549,-0.682 0.667,-0.682l-0.005,-0.042Zm-52.409,0.069c-0,0 -0,0.003 -0,0c-0.07,0.07 -0,0.146 -0,0.265c0.097,0.257 0.16,0.194 0.097,-0.098c0,-0.111 -0.07,-0.174 -0.09,-0.174l-0.007,0.007Zm53.055,19.088c0.069,-0.006 0.083,-0 0.153,0.097c0.069,0.07 0.194,0.112 0.299,0.119c0.473,-0 1.36,-0 1.696,-0.091c0.32,-0.069 0.404,-0.069 0.668,0.084c0.181,0.097 0.396,0.146 0.556,0.132c0.299,0 0.87,0.243 1.145,0.536c0.174,0.18 0.174,0.194 0.07,0.417c-0.097,0.181 -0.119,0.389 -0.111,0.939c-0,0.913 -0.084,1.276 -0.383,1.459c-0.243,0.146 -0.698,0.174 -0.94,0.07c-0.077,-0.07 -0.202,-0.16 -0.279,-0.272c-0.076,-0.111 -0.299,-0.306 -0.507,-0.424c-0.202,-0.125 -0.425,-0.285 -0.494,-0.362c-0.07,-0.076 -0.236,-0.167 -0.383,-0.208c-0.139,-0.07 -0.493,-0.216 -0.788,-0.39c-0.293,-0.174 -0.682,-0.354 -0.87,-0.403c-0.459,-0.111 -0.765,-0.508 -0.765,-0.998c0,-0.362 0.07,-0.418 0.431,-0.418c0.112,0 0.272,-0.069 0.348,-0.146c0.084,-0.083 0.132,-0.125 0.174,-0.132l-0.02,-0.009Zm-21.395,2.519c0.069,0 0.104,0.07 0.215,0.278c0.104,0.202 0.362,0.223 0.41,0.07c0.07,-0.244 0.251,-0.174 0.313,0.118c0.091,0.431 0.07,1.88 0,2.056c-0.104,0.188 -0.598,0.529 -1.058,0.731c-0.188,0.084 -0.501,0.272 -0.697,0.417c-0.195,0.146 -0.48,0.348 -0.626,0.446c-0.146,0.097 -0.264,0.201 -0.264,0.229c-0,0 -0.153,0.153 -0.334,0.264c-0.633,0.404 -1.158,0.244 -1.16,-0.354c-0.002,-0.16 -0.077,-0.362 -0.209,-0.564c-0.118,-0.167 -0.223,-0.41 -0.243,-0.535c-0.174,-1.226 -0.202,-1.498 -0.154,-1.871c0,-0.229 0.07,-0.57 0.07,-0.754c-0,-0.188 0.07,-0.369 0.084,-0.404c0.069,-0.069 0.201,0 0.417,0.07c0.271,0.083 0.661,0.111 1.657,0.111c1.24,-0.001 1.309,0 1.467,-0.153c0.07,-0.07 0.104,-0.097 0.146,-0.104l-0.034,-0.051Zm0.459,0.598c-0,0.001 -0,0 -0.07,0l-0,0.175c0.07,0.118 0.07,0.118 0.084,-0.003c-0,-0.111 -0.004,-0.195 -0.07,-0.195l0.056,0.023Zm23.471,4.288c0.076,0 0.167,0.07 0.278,0.153c0.209,0.174 0.23,0.181 0.355,0.07c0.222,-0.202 0.605,-0.091 0.983,0.285c0.32,0.32 0.32,0.32 0.208,0.515c-0.069,0.104 -0.153,0.389 -0.202,0.626c-0.069,0.236 -0.132,0.646 -0.187,0.914c-0.07,0.272 -0.098,0.598 -0.098,0.733c0,0.438 -0.153,0.612 -0.689,0.802c-0.264,0.097 -0.626,0.244 -0.799,0.334c-0.174,0.09 -0.361,0.167 -0.431,0.167c-0.07,0 -0.181,0.07 -0.257,0.097c-0.077,0.07 -0.362,0.119 -0.64,0.146c-0.272,0 -0.626,0.07 -0.788,0.091l-0.292,0.069l-0.154,-0.354c-0.083,-0.195 -0.153,-0.425 -0.153,-0.508c0,-0.084 0,-0.292 -0.076,-0.459c-0.09,-0.355 -0.216,-0.167 1.049,-1.53c0.383,-0.41 0.776,-0.798 0.875,-0.861c0.313,-0.202 0.57,-0.529 0.702,-0.887c0.09,-0.258 0.18,-0.376 0.305,-0.362l0.011,-0.041Zm-26.059,4.043c0.285,-0.001 0.647,0.069 0.779,0.118c0.556,0.313 1.781,0.723 2.171,0.723c0.243,-0 0.501,0.118 1.077,0.507c0.473,0.32 0.493,0.411 0.236,0.954c-0.215,0.459 -0.487,0.654 -1.209,0.849c-0.32,0.084 -1.071,0.299 -1.677,0.473c-1.485,0.431 -1.45,0.424 -1.605,0.306c-0.118,-0.084 -0.139,-0.236 -0.188,-1.225c0,-0.619 -0.083,-1.302 -0.118,-1.517c-0.076,-0.438 0.006,-1.004 0.174,-1.143c0.069,-0.069 0.188,-0.069 0.355,-0.069l0.005,0.024Zm12.621,8.796c0.612,-0 1.06,0.069 1.34,0.132c0.953,0.341 1.777,0.846 1.777,1.087c-0,0.125 -0.817,1.096 -1.328,1.576c-0.271,0.257 -0.945,0.66 -1.283,0.768c-0.424,0.139 -0.78,0.334 -0.828,0.466c-0,0.077 -0,0.181 0.18,0.306c0.571,0.48 1.364,1.27 1.42,1.415c0.069,0.126 -0,0.195 -0.077,0.299c-0.104,0.105 -0.125,0.181 -0.076,0.299c0.07,0.098 0,0.251 0,0.397c-0.07,0.195 -0.153,0.271 -0.508,0.417c-0.914,0.39 -1.396,0.522 -2.148,0.591c-0.424,0.07 -1.006,0.105 -1.299,0.14l-0,0c-0.293,0.07 -0.981,0.07 -1.528,0.07l-0.996,-0.003l-0.334,-0.244c-0.542,-0.396 -0.77,-1.013 -0.975,-2.621c-0.07,-0.348 -0.126,-0.732 -0.188,-0.853c-0.299,-0.619 -0.557,-0.961 -1.157,-1.491c-0.125,-0.111 -0.292,-0.32 -0.362,-0.459c-0.146,-0.285 -0.243,-1.051 -0.146,-1.111c0.07,-0 0.223,0.069 0.418,0.145l0.354,0.188l0.494,-0.153c0.272,-0.083 0.682,-0.18 0.913,-0.215c0.229,-0 0.563,-0.111 0.75,-0.174c0.18,-0.07 0.466,-0.132 0.632,-0.153c0.168,-0 0.411,-0.077 0.536,-0.111c0.125,-0.07 0.48,-0.084 0.782,-0.091c0.417,0 0.674,-0.076 1.073,-0.243c0.396,-0.167 0.708,-0.237 1.296,-0.292c0.487,-0.07 0.915,-0.07 1.283,-0.077l-0.015,-0.005Zm-1.232,12.043c0.07,0.001 0.119,0.006 0.181,-0c0.202,-0 0.571,0.07 0.828,0.07c0.647,-0 0.981,0.145 1.337,0.452l0.307,0.264l0.069,0.675c0.07,0.813 0,1.032 -0.368,1.176c-0.279,0.118 -0.293,0.146 -0.146,0.313c0.09,0.097 0.083,0.153 -0.07,0.431c-0.132,0.278 -0.202,0.334 -0.543,0.452c-0.767,0.264 -1.334,0.348 -2.772,0.41c-0.967,0.07 -1.719,0.119 -2.239,0.216c-0.431,0.083 -0.994,0.167 -1.252,0.188c-0.438,-0 -0.487,-0 -0.695,-0.167c-0.564,-0.508 -0.774,-2.116 -0.466,-3.557c0.069,-0.222 0.459,-0.333 1.17,-0.313c0.397,0 0.838,0 1.279,-0.125c0.812,-0.174 1.734,-0.292 2.282,-0.292c0.223,0 0.522,-0.07 0.668,-0.111c0.139,-0.07 0.278,-0.084 0.452,-0.084l-0.022,0.002Z" style="fill-rule:nonzero;"/><path id="path141-4-2" d="M157.052,5.149c-0.237,-0 -0.543,-0.006 -0.996,-0c-0.626,-0 -1.18,0.09 -1.228,0.139c-0.07,0.069 -0.264,0.09 -0.473,0.09c-0.396,-0.001 -1.502,0.216 -2.63,0.515c-0.347,0.09 -0.825,0.201 -1.058,0.25c-0.237,0.07 -0.689,0.139 -1.016,0.216c-0.327,0.069 -0.936,0.187 -1.355,0.25c-0.418,0.069 -0.82,0.139 -0.889,0.167c-0.07,-0 -0.376,0.083 -0.675,0.125c-0.306,0.07 -0.951,0.153 -1.44,0.244c-1.138,0.215 -2.376,0.396 -4.234,0.619c-0.815,0.097 -2.06,0.285 -2.767,0.424c-0.707,0.139 -1.652,0.285 -2.102,0.334c-0.445,0.069 -0.88,0.118 -0.958,0.16c-0.077,0.069 -0.369,0.104 -0.654,0.132c-0.487,0.069 -1.676,0.313 -2.202,0.466c-0.292,0.09 -2.258,0.501 -2.879,0.598c-0.521,0.084 -0.891,0.16 -1.058,0.209c-0.139,0.069 -1.503,0.215 -1.906,0.243c-0.139,0 -0.334,0.07 -0.424,0.111c-0.091,0.07 -0.473,0.133 -0.847,0.188c-0.375,0.07 -1.458,0.23 -2.413,0.383c-1.823,0.299 -4.029,0.626 -4.634,0.688c-0.195,0 -0.626,0.091 -0.958,0.16c-0.327,0.07 -0.78,0.133 -0.998,0.133c-0.216,0 -0.892,0.076 -1.498,0.167c-0.605,0.09 -1.408,0.208 -1.782,0.25c-0.376,0.069 -0.889,0.125 -1.143,0.174c-0.258,0.069 -0.9,0.125 -1.436,0.167c-0.535,0.069 -1.431,0.111 -1.99,0.167c-1.33,0.125 -3,0.118 -4.103,-0c-0.734,-0.084 -0.973,-0.153 -1.398,-0.39c-0.57,-0.32 -0.884,-0.64 -1.191,-1.227c-0.278,-0.529 -0.605,-1.553 -0.728,-2.254c-0.111,-0.661 -0.208,-0.946 -0.32,-0.946c-0.069,-0 -0.229,0.278 -0.417,0.612c-0.188,0.341 -0.424,0.696 -0.535,0.795c-0.216,0.195 -1.307,0.877 -1.405,0.877c-0.125,0 -1.432,0.71 -1.631,0.888c-0.265,0.236 -1.776,1.245 -2.528,1.69c-0.719,0.424 -1.882,1.191 -2.484,1.637c-0.5,0.368 -2.607,2.543 -2.858,2.949c-0.083,0.139 -0.236,0.32 -0.333,0.41c-0.098,0.09 -0.181,0.202 -0.181,0.257c-0,0.07 -0.111,0.202 -0.244,0.327c-0.132,0.126 -0.32,0.39 -0.417,0.585c-1.185,2.401 -1.703,3.738 -1.881,4.849c-0.215,1.357 -0.264,1.897 -0.215,2.579c-0,0.396 0.069,0.826 0.069,0.957c0,0.612 0.882,2.682 1.734,4.015c0.848,1.327 0.999,1.534 1.529,2.099c0.305,0.327 0.772,0.836 1.038,1.132c1.125,1.254 1.801,1.789 2.262,1.789c0.202,0 0.334,0.091 0.619,0.425c0.375,0.431 0.873,0.741 1.523,0.935c0.355,0.105 0.549,0.306 0.501,0.515c-0,0.07 0.069,0.104 0.146,0.111c0.236,0.006 0.215,0.25 -0,0.285c-0.216,0 -0.251,0.202 -0.077,0.369c0.07,0.069 0.111,0.167 0.119,0.236c0.003,0.07 0.069,0.307 0.118,0.529c0.104,0.39 0.104,0.417 -0.174,0.988c-0.16,0.327 -0.396,0.715 -0.529,0.87c-0.132,0.154 -0.32,0.418 -0.41,0.592c-0.09,0.167 -0.195,0.32 -0.237,0.34c-0.069,0 -0.236,0.334 -0.431,0.707c-0.194,0.376 -0.389,0.735 -0.431,0.805c-0.487,0.793 -0.782,1.366 -0.857,1.64c-0.069,0.181 -0.174,0.445 -0.271,0.577c-0.23,0.313 -0.32,1.25 -0.209,2.225c0.104,0.92 0.299,1.457 0.64,1.715c0.153,0.119 0.278,0.258 0.278,0.313c0,0.167 0.661,0.959 1.482,1.795c0.668,0.674 1.147,1.047 2.695,2.086c0.688,0.459 1.687,1.599 1.726,1.967c0,0.265 0.174,1.268 0.32,2.202c0.09,0.564 0.118,1.145 0.09,1.736c0,0.487 -0.069,1.423 -0.09,2.075c0,0.654 -0.07,1.338 -0.09,1.524c-0,0.188 -0.07,0.739 -0.07,1.228c0,0.487 -0.07,0.946 -0.076,1.017c-0,0.069 -0.077,0.528 -0.105,1.016c-0.069,0.888 -0.069,1.353 -0.16,3.979c-0.069,1.525 -0.167,3.103 -0.243,3.304c-0,0.069 -0.076,0.717 -0.104,1.439c-0,0.722 -0.07,1.446 -0.091,1.609c0,0.16 -0.069,0.584 -0.069,0.931c-0,0.348 -0.07,1.017 -0.091,1.483c-0.097,1.512 -0.174,3.787 -0.257,7.24c-0,0.955 -0.07,1.927 -0.111,2.159c-0.174,1 -0.748,1.751 -1.355,1.767c-0.23,0.006 -0.425,-0.07 -0.598,-0.181c-0.14,-0.105 -0.383,-0.216 -0.543,-0.25c-0.195,-0.07 -0.41,-0.209 -0.695,-0.529c-0.529,-0.598 -0.744,-0.73 -1.329,-0.794l-0.48,-0.07l-0.355,0.487c-0.194,0.264 -0.591,0.906 -0.891,1.418c-0.299,0.515 -0.661,1.086 -0.808,1.276c-0.236,0.306 -0.535,0.978 -0.626,1.434c0,0.167 -0.111,0.396 -0.354,1.081c-0.07,0.174 -0.112,0.418 -0.112,0.536c0,0.118 -0.069,0.396 -0.159,0.612c-0.244,0.619 -0.355,1.088 -0.48,2.048c-0.07,0.487 -0.16,1.118 -0.216,1.398c-0.118,0.591 -0.07,4.018 0.098,4.831c0.111,0.647 0.208,1.267 0.326,2.1c0.07,0.368 0.146,0.746 0.209,0.847c0.07,0.097 0.139,0.361 0.167,0.584c0,0.223 0.091,0.466 0.132,0.549c0.174,0.32 0.508,1.101 0.64,1.524c0.077,0.243 0.195,0.486 0.265,0.535c0.069,0.07 0.118,0.167 0.118,0.25c-0,0.084 0.07,0.181 0.097,0.209c0.07,0 0.188,0.25 0.299,0.494c0.557,1.184 1.385,2.476 1.935,3.013c0.167,0.16 0.299,0.327 0.299,0.369c-0,0.271 2.131,2.534 3.263,3.468c0.889,0.735 2.324,1.779 2.751,2.004c1.454,0.765 1.814,0.939 1.952,0.939c0.083,-0 0.243,0.07 0.347,0.076c0.105,0.07 0.557,0.181 0.999,0.313c0.445,0.133 0.862,0.299 0.934,0.39c0.118,0.146 0.187,0.153 1.016,0.069c0.947,-0.104 1.085,-0.153 1.955,-0.719c1.01,-0.653 2.532,-2.501 3.16,-3.827c0.118,-0.244 0.347,-0.612 0.507,-0.811c0.167,-0.202 0.376,-0.55 0.473,-0.781c0.223,-0.514 0.285,-0.674 0.459,-1.061c0.077,-0.167 0.126,-0.341 0.112,-0.382c-0,-0.077 0.132,-0.654 0.278,-1.028c0.069,-0.104 0.069,-0.243 -0,-0.306c-0,-0.07 -0.077,-0.375 -0.125,-0.7c-0.07,-0.32 -0.112,-0.795 -0.153,-1.051c-0.07,-0.271 -0.07,-0.5 -0.003,-0.549c0.069,-0.07 0.076,-0.167 0.076,-0.278c-0,-0.111 0.097,-0.383 0.209,-0.612c0.118,-0.23 0.208,-0.494 0.208,-0.585c0,-0.305 0.369,-0.742 0.843,-0.991c0.25,-0.133 0.695,-0.383 0.974,-0.543c0.278,-0.167 0.874,-0.438 1.317,-0.605c2.339,-0.89 2.678,-1.027 2.805,-1.139c0.126,-0.111 0.146,-0.091 0.195,0.18c0,0.168 0,0.942 0.003,1.72c0,0.894 0,1.739 0.07,2.301c0.069,0.487 0.132,1.271 0.174,1.737c0.153,1.783 0.438,3.425 0.752,4.31c0.098,0.278 0.174,0.571 0.174,0.654c0,0.083 0.153,0.452 0.334,0.812c0.181,0.362 0.375,0.85 0.431,1.083c0.07,0.23 0.16,0.633 0.23,0.889c0.153,0.522 1.085,1.998 1.404,2.221c0.111,0.083 0.389,0.424 0.612,0.762c0.223,0.341 0.431,0.633 0.452,0.661c-0,0 0.237,0.264 0.459,0.529c0.223,0.271 0.438,0.487 0.48,0.487c0.07,-0 0.236,0.111 0.438,0.25c0.23,0.153 0.508,0.257 0.745,0.278c1.272,0.111 1.909,0 3.003,-0.529c0.724,-0.354 1.265,-0.79 2.248,-1.826c0.521,-0.556 1.815,-2.49 2.347,-3.524c0.396,-0.774 1.1,-1.938 1.468,-2.439c0.209,-0.286 0.292,-0.501 0.327,-0.848c0.07,-0.452 0.07,-0.466 0.313,-0.493c0.244,-0 0.292,-0 0.563,0.466c0.168,0.271 0.383,0.681 0.487,0.915c0.105,0.236 0.279,0.612 0.39,0.848c0.111,0.236 0.202,0.514 0.202,0.626c-0,0.111 0.132,0.528 0.292,0.93c0.16,0.404 0.41,1.076 0.549,1.498c0.299,0.891 0.82,1.876 1.063,2.006c0.091,0.069 0.237,0.174 0.313,0.278c0.084,0.104 0.48,0.348 0.89,0.549c0.411,0.202 0.803,0.397 0.873,0.432c1.008,0.584 2.174,0.745 3.759,0.521c0.577,-0.083 0.746,-0.146 1.244,-0.487c0.963,-0.653 2.991,-2.789 3.547,-3.726c0.432,-0.724 1.145,-1.782 1.248,-1.846c0.07,-0.07 0.111,-0.105 0.111,-0.146c0,-0.07 0.16,-0.285 0.362,-0.529c0.369,-0.452 0.556,-0.821 0.961,-1.882c0.125,-0.327 0.299,-0.695 0.383,-0.817c0.083,-0.125 0.16,-0.264 0.16,-0.313c-0,-0.07 0.118,-0.376 0.257,-0.735c0.223,-0.556 0.25,-0.711 0.202,-1.108c-0.07,-0.493 0.069,-0.918 0.264,-1c0.07,0 0.118,-0.146 0.118,-0.257c0,-0.383 0.251,-0.244 0.466,0.25c0.112,0.258 0.341,0.654 0.501,0.883c0.362,0.508 0.557,0.966 0.557,1.284c-0,0.132 -0,0.257 0.076,0.285c0.07,-0 0.098,0.194 0.125,0.375c0.084,0.501 0.557,1.423 1.413,2.722c0.069,0.07 0.257,0.487 0.466,0.931c0.215,0.445 0.466,0.957 0.563,1.144c0.098,0.188 0.237,0.466 0.313,0.626c0.306,0.66 2.154,2.538 2.988,3.041c0.18,0.104 0.326,0.222 0.326,0.257c0,0.07 0.508,0.306 1.101,0.515c0.827,0.299 2.62,0.271 2.883,-0.07c0.069,-0.07 0.299,-0.236 0.549,-0.375c0.244,-0.14 0.584,-0.418 0.756,-0.613c0.167,-0.194 0.355,-0.417 0.417,-0.486c0.07,-0.07 0.133,-0.195 0.168,-0.279c-0,-0.083 0.145,-0.18 0.257,-0.229c0.111,-0.07 0.285,-0.209 0.389,-0.376c0.105,-0.167 0.265,-0.32 0.355,-0.354c0.097,-0 0.223,-0.174 0.285,-0.32c0.07,-0.146 0.258,-0.466 0.438,-0.701c0.998,-1.339 1.378,-1.905 1.584,-2.361c0.125,-0.278 0.306,-0.591 0.404,-0.689c0.097,-0.097 0.208,-0.347 0.25,-0.549c0.069,-0.202 0.292,-0.803 0.549,-1.342c0.258,-0.535 0.522,-1.092 0.585,-1.232c0.215,-0.473 0.486,-1.352 0.556,-1.821c0.07,-0.258 0.132,-0.771 0.202,-1.144c0.431,-2.23 0.577,-3.56 0.584,-5.292c0,-1.221 0,-2.038 -0.132,-2.756c-0.188,-1.364 -0.55,-3.072 -0.785,-3.757c-0.202,-0.577 -0.362,-1.165 -0.473,-1.743c-0.07,-0.188 -0.133,-0.571 -0.209,-0.846c-0.077,-0.278 -0.195,-0.793 -0.264,-1.143c-0.348,-1.824 -0.55,-2.955 -0.578,-3.233c0,-0.174 -0.069,-0.39 -0.125,-0.48c-0.069,-0.098 -0.09,-0.299 -0.09,-0.459c-0,-0.16 -0.091,-0.837 -0.209,-1.509c-0.223,-1.325 -0.445,-3.158 -0.563,-4.567c-0.07,-0.487 -0.077,-0.898 -0.077,-0.91l-0.18,-0c-0.167,-0 -0.174,0.069 -0.139,0.382c-0,0.23 0.002,0.438 -0.07,0.522c-0.07,0.09 -0.083,0.243 -0.07,0.424c0.07,0.209 0,0.32 -0.069,0.411c-0.111,0.111 -0.105,0.132 -0,0.18c0.104,0.07 0.118,0.07 -0,0.119c-0.084,0.069 -0.084,0.09 -0,0.194c0.09,0.105 0.069,0.153 -0.111,0.272c-0.119,0.076 -0.216,0.194 -0.216,0.264c0,0.424 -1.208,1.755 -1.684,1.858c-0.119,-0 -0.299,0.076 -0.39,0.118c-0.278,0.111 -1.202,0.243 -1.412,0.202c-0.778,-0.16 -1.668,-0.543 -2.229,-0.96c-0.188,-0.139 -0.48,-0.327 -0.654,-0.424c-0.174,-0.098 -0.334,-0.209 -0.368,-0.258c-0,-0.069 -0.084,-0.069 -0.126,-0.069c-0.069,-0 -0.139,-0.07 -0.222,-0.188c-0.084,-0.125 -0.327,-0.418 -0.536,-0.64c-0.215,-0.223 -0.452,-0.55 -0.521,-0.72c-0.077,-0.174 -0.439,-0.584 -0.834,-0.946c-0.383,-0.348 -0.77,-0.775 -0.859,-0.949c-0.166,-0.333 -0.215,-0.825 -0.09,-0.962c0.118,-0.125 0.431,-1.012 0.723,-2.046c0.146,-0.522 0.299,-0.977 0.327,-1.01c0,0 0.07,-0.215 0.07,-0.403c0.002,-0.188 0.069,-0.438 0.125,-0.556c0.07,-0.119 0.118,-0.307 0.125,-0.425c0.006,-0.271 0.556,-2.475 0.675,-2.698c0.069,-0.097 0.097,-0.236 0.097,-0.327c0.001,-0.083 0.098,-0.347 0.216,-0.577c0.188,-0.368 0.535,-1.43 0.563,-1.705c0.006,-0.069 0.111,-0.243 0.23,-0.424c0.215,-0.313 0.243,-0.327 0.811,-0.382c1.309,-0.112 1.778,-0.195 1.862,-0.307c0.07,-0.069 0.299,-0.146 0.55,-0.18c0.257,-0.07 0.711,-0.188 1.012,-0.334c0.299,-0.146 0.592,-0.272 0.64,-0.272c0.216,0 2.496,-1.972 2.496,-2.159c-0,-0 0.069,-0.153 0.153,-0.278c0.64,-0.944 0.899,-1.375 1.383,-2.305c0.535,-1.035 0.695,-1.391 0.834,-1.905c0.069,-0.14 0.153,-0.466 0.25,-0.72c0.215,-0.563 0.515,-1.63 0.556,-2.013c0,-0.153 0.077,-0.514 0.133,-0.804c0.313,-1.701 0.159,-5.699 -0.279,-7.049c-0.069,-0.139 -0.097,-0.403 -0.118,-0.591c0,-0.188 -0.09,-0.508 -0.16,-0.72c-0.069,-0.208 -0.146,-0.514 -0.174,-0.674c0,-0.16 -0.097,-0.376 -0.153,-0.466c-0.069,-0.091 -0.097,-0.209 -0.097,-0.258c-0.006,-0.097 -0.188,-0.681 -0.293,-0.931c-0.069,-0.091 -0.118,-0.341 -0.173,-0.55c-0.07,-0.208 -0.174,-0.57 -0.258,-0.804c-0.083,-0.23 -0.236,-0.689 -0.341,-1.016c-0.104,-0.327 -0.278,-0.859 -0.389,-1.186c-0.111,-0.327 -0.278,-0.821 -0.362,-1.101c-0.424,-1.355 -0.726,-2.017 -1.371,-2.992c-0.23,-0.341 -0.411,-0.647 -0.411,-0.688c0,-0.07 -0.083,-0.14 -0.181,-0.23c-0.097,-0.09 -0.264,-0.334 -0.375,-0.542c-0.104,-0.209 -0.334,-0.515 -0.501,-0.675c-0.167,-0.16 -0.306,-0.341 -0.306,-0.403c0,-0.07 -0.306,-0.425 -0.674,-0.809c-0.369,-0.382 -0.79,-0.911 -0.928,-1.17c-0.139,-0.257 -0.48,-0.754 -0.765,-1.101c-0.285,-0.348 -0.55,-0.765 -0.599,-0.929c-0.069,-0.168 -0.132,-0.369 -0.201,-0.46c-0.119,-0.159 -0.126,-0.159 -0.487,0c-0.376,0.181 -0.741,0.334 -0.857,0.348c-0.07,0.006 -0.188,0.07 -0.341,0.125c-0.153,0.07 -0.508,0.167 -0.8,0.223c-0.293,0.07 -0.592,0.181 -0.668,0.271c-0.077,0.091 -0.209,0.16 -0.292,0.16c-0.167,0 -1.139,0.571 -1.611,0.939c-0.167,0.132 -1.175,0.681 -2.243,1.226c-2.953,1.504 -3.116,1.595 -4.568,2.579c-0.188,0.125 -0.521,0.306 -0.741,0.403c-0.223,0.098 -0.605,0.362 -0.847,0.585c-0.5,0.466 -1.08,0.87 -1.237,0.87c-0.07,-0 -0.396,0.187 -0.748,0.424c-0.355,0.229 -0.708,0.424 -0.788,0.424c-0.084,0 -0.244,0.077 -0.362,0.167c-0.118,0.091 -0.459,0.272 -0.753,0.397c-0.299,0.125 -0.577,0.271 -0.626,0.32c-0.118,0.132 -0.725,0.299 -1.069,0.299c-0.16,-0.002 -0.417,-0.077 -0.584,-0.167c-0.16,-0.09 -0.389,-0.202 -0.508,-0.258c-0.605,-0.271 -1.38,-1.692 -1.615,-2.963c-0.069,-0.306 -0.125,-0.577 -0.16,-0.612c0,-0.07 0,-0.32 0.003,-0.633l0,-0.707c-0.069,-0.084 -0.069,-0.174 0,-0.223c0.07,-0.07 0.07,-0.216 0.006,-0.487c-0.069,-0.257 -0.069,-0.501 0,-0.697c0.07,-0.237 0.07,-0.327 -0.069,-0.424c-0.105,-0.105 -0.153,-0.084 -0.348,0.16c-0.125,0.153 -0.299,0.354 -0.383,0.452c-0.083,0.09 -0.215,0.285 -0.292,0.424c-0.076,0.139 -0.32,0.473 -0.542,0.736c-0.223,0.264 -0.713,0.856 -1.091,1.313c-0.376,0.459 -0.769,0.903 -0.869,0.991c-0.097,0.091 -0.18,0.202 -0.18,0.244c-0,0.153 -0.612,0.834 -0.838,0.929c-0.118,0.069 -0.32,0.195 -0.445,0.313c-0.778,0.75 -1.312,0.734 -1.608,-0.07c-0.188,-0.501 -0.209,-1.18 -0.069,-1.277c0.069,-0.07 0.201,-0.355 0.306,-0.704c0.104,-0.347 0.32,-0.891 0.473,-1.204c0.16,-0.313 0.285,-0.619 0.285,-0.681c-0,-0.07 0.097,-0.25 0.215,-0.431c0.119,-0.174 0.278,-0.515 0.348,-0.761c0.07,-0.244 0.215,-0.612 0.327,-0.822c0.174,-0.341 0.32,-0.935 0.299,-1.27c-0,-0.425 -0.132,-0.914 -0.25,-1.098c-0.167,-0.257 -1.039,-1.122 -2.17,-2.149c-0.466,-0.424 -1.114,-1.028 -1.439,-1.343c-0.327,-0.313 -0.661,-0.578 -0.742,-0.578c-0.083,-0 -0.146,-0.069 -0.146,-0.145c0,-0.077 -0.097,-0.244 -0.222,-0.376l-0.223,-0.23l0.181,-0.069c0.111,-0.07 0.167,-0.104 0.139,-0.174c-0.07,-0.153 0.16,-0.264 0.633,-0.32c0.208,0 0.929,-0.146 1.604,-0.264c0.675,-0.118 1.476,-0.258 1.779,-0.292c0.299,-0.07 0.969,-0.133 1.482,-0.202c0.826,-0.111 1.497,-0.244 2.392,-0.473c0.154,-0.07 0.713,-0.07 1.248,-0.07c0.535,-0.001 1.047,-0.069 1.142,-0.097c0.097,-0.07 0.556,-0.111 1.03,-0.133c0.473,0 0.891,-0.069 0.929,-0.083c0.069,-0 0.861,-0.07 1.829,-0.09c1.377,-0 1.877,-0 2.292,0.083c0.292,0.07 0.549,0.125 0.57,0.132c0,0.003 0.264,0.119 0.536,0.258c0.514,0.257 0.88,0.619 1.254,1.22c0.32,0.521 0.598,0.795 1.215,1.197c1.265,0.83 2.221,1.146 3.465,1.146c0.689,-0 1.646,-0.139 1.912,-0.278c0.174,-0.091 0.327,-0.133 1.351,-0.341c0.452,-0.09 0.633,-0.174 0.771,-0.348c0.174,-0.215 0.209,-0.229 0.654,-0.174c0.431,0.07 0.528,0 1.209,-0.292c0.411,-0.195 0.781,-0.348 0.828,-0.348c0.125,0 1.616,-0.771 1.68,-0.869c-0,-0.07 0.306,-0.223 0.612,-0.397c0.348,-0.194 0.668,-0.452 0.854,-0.701c0.167,-0.215 0.445,-0.459 0.619,-0.549c0.327,-0.16 1.701,-1.715 2.074,-2.347c0.104,-0.181 0.278,-0.417 0.383,-0.521c0.104,-0.105 0.187,-0.209 0.187,-0.237c0,0 0.244,-0.507 0.543,-1.067c0.473,-0.894 0.563,-1.131 0.72,-1.972c0.215,-1.161 0.236,-1.669 0.097,-2.606c-0.104,-0.706 -0.188,-1.016 -0.466,-1.779c-0.5,-1.351 -0.598,-1.58 -0.695,-1.7c-0.07,-0.076 -0.111,-0.18 -0.111,-0.236c-0,-0.07 -0.112,-0.258 -0.251,-0.452c-0.139,-0.195 -0.257,-0.404 -0.257,-0.466c-0,-0.07 -0.07,-0.216 -0.146,-0.341c-0.076,-0.118 -0.153,-0.272 -0.16,-0.327c0,-0.146 -1.229,-1.891 -1.705,-2.466c-0.146,-0.181 -0.438,-0.536 -0.647,-0.791c-0.208,-0.258 -0.556,-0.64 -0.772,-0.847c-0.215,-0.208 -0.431,-0.445 -0.473,-0.521c-0.069,-0.077 -0.431,-0.432 -0.861,-0.779c-0.432,-0.347 -1.067,-0.923 -1.413,-1.275c-0.348,-0.354 -0.654,-0.639 -0.682,-0.639c0,-0 -0.201,-0.14 -0.382,-0.306c-0.181,-0.167 -0.626,-0.529 -0.979,-0.8c-0.354,-0.272 -0.667,-0.557 -0.695,-0.626c-0,-0.07 -0.195,-0.153 -0.369,-0.181c-0.174,0 -0.508,-0.111 -0.741,-0.188c-0.167,-0.069 -0.326,-0.083 -0.563,-0.097l0.148,0.118Zm-37.578,28.78c0.306,-0 0.375,0.069 0.327,0.299c-0.112,0.466 -0.105,1.5 0.003,2.084c0.069,0.237 0.069,0.713 -0,1.188c-0.07,0.438 -0.091,1.543 -0.105,2.459l0,1.667l-0.215,0.069c-0.119,0 -0.362,0.077 -0.55,0.097c-0.188,0 -0.549,0.105 -0.804,0.174c-0.258,0.07 -0.826,0.146 -1.266,0.167c-0.438,0 -0.859,0.07 -0.931,0.111c-0.069,0.07 -0.348,0.098 -0.619,0.126c-0.508,0.069 -1.237,0.285 -1.433,0.445c-0.153,0.118 -0.754,0.215 -1.425,0.236c-0.307,0.006 -0.661,0.07 -0.788,0.112l-0.001,-0c-0.32,0.139 -0.584,0.187 -0.718,0.132c-0.188,-0.077 -0.515,-0.834 -0.605,-1.388c-0.07,-0.453 -0.07,-0.55 0.069,-0.633c0.104,-0.077 0.125,-0.195 0.084,-0.557c-0.139,-1.321 -0.153,-1.791 -0.07,-2.152c0.084,-0.327 0.076,-0.417 -0.07,-0.591c-0.104,-0.16 -0.139,-0.445 -0.153,-1.161c0,-0.877 0.001,-0.959 0.16,-1.039c0.098,-0.07 0.16,-0.146 0.146,-0.215c0,-0.112 0.188,-0.146 1.264,-0.244c0.709,-0.069 1.863,-0.215 2.564,-0.355c0.701,-0.132 1.504,-0.285 1.784,-0.333c0.278,-0.07 0.667,-0.126 0.869,-0.174c0.202,-0.07 0.55,-0.077 0.779,-0.077c0.23,0 0.508,-0.069 0.612,-0.076c0.327,-0.132 0.529,-0.202 0.591,-0.209c0,-0.003 0.084,-0.069 0.119,-0.069c0.069,-0.07 0.208,-0.07 0.389,-0.07l-0.007,-0.023Zm-0.696,21.875c0,0.001 0.07,0.006 0.07,-0c0.104,0.069 0.118,0.132 0.069,0.473c0,0.236 0,0.466 0.003,0.521c0,0.07 0.07,0.633 0.084,1.289l-0,2.759c-0,0.848 -0,1.494 0.083,1.644c0.07,0.132 0.07,0.271 0,0.306c-0.069,-0 -0.389,0.118 -0.786,0.188c-0.902,0.16 -0.964,0.174 -1.016,0.243c-0.069,0.07 -2.913,0.341 -3.684,0.369c-0.237,-0 -0.563,0.076 -0.738,0.153c-0.174,0.076 -0.494,0.16 -0.72,0.188c-0.222,-0 -0.459,0.069 -0.528,0.083c-0.188,0.07 -0.619,-0.215 -0.922,-0.57c-0.237,-0.271 -0.264,-0.369 -0.257,-0.762c-0,-0.893 -0,-4.194 -0.006,-4.94c-0,-0.417 -0.07,-0.833 -0.112,-0.92c-0.069,-0.09 -0.069,-0.187 -0.003,-0.229c0.07,-0.069 0.585,-0.09 1.216,-0.104c0.626,-0 1.539,-0.077 2.028,-0.133c0.487,-0.069 1.461,-0.132 2.16,-0.174c0.698,-0.069 1.422,-0.111 1.609,-0.159c0.674,-0.167 1.193,-0.251 1.393,-0.244l0.057,0.019Zm32.924,9.045c0.105,-0 0.202,0.069 0.306,0.139c0.153,0.125 0.181,0.222 0.167,0.57c-0.069,1.155 -0.097,1.63 -0.188,1.847c-0.069,0.133 -0.097,0.404 -0.097,0.605c-0,0.202 -0.07,0.473 -0.125,0.605c-0.07,0.133 -0.202,0.515 -0.299,0.853c-0.098,0.334 -0.216,0.633 -0.251,0.661c-0.069,-0 -0.139,0.271 -0.215,0.556c-0.076,0.279 -0.174,0.529 -0.216,0.557c-0.069,-0 -0.069,0.139 -0.069,0.257c-0,0.119 -0.07,0.32 -0.125,0.459c-0.07,0.139 -0.119,0.265 -0.105,0.279c0,-0 -0.278,0.737 -0.528,1.242c-0.084,0.16 -0.167,0.425 -0.202,0.571c-0,0.153 -0.146,0.417 -0.264,0.591c-0.119,0.174 -0.216,0.382 -0.216,0.466c0,0.083 -0.069,0.174 -0.125,0.202c-0.07,-0 -0.125,0.132 -0.132,0.229c-0.006,0.285 -0.195,0.914 -0.376,1.24c-0.202,0.368 -0.375,0.843 -0.382,1.027c-0.001,0.153 -0.411,0.932 -0.529,1.014c-0.069,0 -0.083,0.125 -0.097,0.209c-0,0.202 -0.508,0.445 -0.885,0.452c-0.216,0.003 -0.376,-0.077 -0.654,-0.32c-0.299,-0.258 -0.459,-0.341 -0.816,-0.383c-0.285,0 -0.494,-0.111 -0.57,-0.208c-0.258,-0.32 -0.804,-0.508 -1.991,-0.696c-0.237,-0.069 -0.564,-0.104 -0.728,-0.146c-0.181,-0.069 -0.494,-0.069 -0.762,0c-0.251,0.07 -0.647,0.098 -0.872,0.119c-0.334,0.069 -0.48,0.118 -0.776,0.41c-0.243,0.237 -0.529,0.41 -0.857,0.522c-0.271,0.09 -0.717,0.319 -0.989,0.5c-0.271,0.188 -0.619,0.418 -0.766,0.508c-0.556,0.348 -1.012,0.775 -1.288,1.207c-0.181,0.285 -0.348,0.445 -0.446,0.445c-0.264,-0 -0.431,0.09 -0.431,0.243c0,0.077 -0.069,0.39 -0.139,0.701l-0.139,0.564l0.229,0.389c0.244,0.411 1.032,0.986 1.358,0.986c0.098,-0 0.25,0.07 0.341,0.118c0.097,0.07 0.375,0.119 0.675,0.119c0.382,-0.003 0.653,0.069 1.141,0.264c0.791,0.334 1.743,0.895 2.064,1.209c0.132,0.133 0.271,0.237 0.305,0.237c0.084,-0 0.599,0.493 0.599,0.57c-0,-0 0.132,0.153 0.299,0.264c0.306,0.209 0.889,1.229 0.889,1.553c0,0.09 0.07,0.236 0.091,0.327c0.09,0.166 -0.003,1.318 -0.16,1.985c-0.258,1.066 -0.341,1.317 -0.578,1.657c-0.139,0.209 -0.34,0.529 -0.438,0.714c-0.466,0.862 -1.477,2.033 -1.827,2.108c-0.139,-0 -0.341,0.139 -0.445,0.236c-0.216,0.209 -0.271,0.404 -0.07,0.23c0.119,-0.098 0.133,-0.084 0.105,0.097c-0,0.174 -0.07,0.202 -0.293,0.181c-0.201,0 -0.333,0.07 -0.549,0.236c-0.383,0.355 -0.972,0.341 -1.548,-0.069c-0.459,-0.299 -1.928,-2.254 -2.229,-2.963c-0.584,-1.378 -0.633,-1.752 -0.66,-4.996c-0,-1.351 -0.07,-2.875 -0.119,-3.387c-0.069,-0.515 -0.09,-1.37 -0.09,-1.906c0.003,-0.697 -0.07,-1.214 -0.174,-1.82c-0.16,-0.753 -0.174,-1.004 -0.132,-2.245c-0,-0.768 0.069,-1.924 0.09,-2.569c0,-0.647 0.07,-1.205 0.084,-1.244c-0,-0.07 0.069,-0.522 0.09,-1.071c-0,-0.55 0.083,-1.068 0.132,-1.152c0.07,-0.091 0.07,-0.404 0,-0.74c-0.069,-0.494 -0.069,-0.598 0.077,-0.64c0.271,-0.104 0.891,0.299 1.39,0.91c1.047,1.274 1.983,1.597 4.161,1.435c1.227,-0.091 2.04,-0.313 1.911,-0.522c-0,-0.07 -0.006,-0.084 0.07,-0.07c0.167,0 0.493,-0.09 0.493,-0.188c0,-0.069 0.07,-0.076 0.16,-0.076c0.091,0 0.209,-0.07 0.265,-0.125c0.069,-0.07 0.159,-0.125 0.229,-0.125c0.146,-0 0.954,-0.571 0.954,-0.682c-0,-0.076 1.316,-1.091 1.52,-1.169c0.07,-0 0.278,-0.188 0.452,-0.348c0.174,-0.167 0.536,-0.445 0.789,-0.619c0.453,-0.306 1.555,-1.344 1.555,-1.463c-0,-0.174 2.304,-2.612 2.807,-2.967c0.195,-0.139 0.473,-0.375 0.619,-0.528c0.188,-0.195 0.362,-0.278 0.529,-0.264l0.016,0.026Zm-33.587,11.492c0.222,0.001 0.327,0.07 0.361,0.16c0.105,0.362 0.098,3.106 0,4.128c-0.069,0.501 -0.069,1.158 -0.003,1.906c0.202,2.873 0.174,3.04 -0.605,3.355c-0.341,0.139 -0.647,0.187 -1.151,0.194c-0.375,0.003 -0.789,0.07 -0.916,0.091c-0.125,0.069 -0.403,0.09 -0.605,0.09c-0.25,-0 -0.487,0.07 -0.696,0.195c-0.173,0.111 -0.486,0.222 -0.695,0.257c-0.209,0 -0.598,0.132 -0.865,0.223c-0.271,0.09 -0.646,0.18 -0.85,0.201c-0.389,0.07 -0.829,-0.083 -0.829,-0.243c0,-0.07 -0.069,-0.167 -0.16,-0.244c-0.201,-0.18 -0.278,-0.626 -0.299,-1.713c0,-0.577 -0.069,-0.904 -0.125,-0.995c-0.139,-0.174 -0.09,-1.516 0.125,-3.185c0.084,-0.626 0.154,-1.429 0.168,-1.778c-0,-0.348 0.069,-0.696 0.069,-0.763c0,-0.069 0.07,-0.229 0.098,-0.354c0.069,-0.188 0.111,-0.237 0.368,-0.278c0.174,-0 0.605,-0.105 0.952,-0.167c0.348,-0.07 0.883,-0.139 1.186,-0.16c0.695,-0.07 1.357,-0.181 2.328,-0.452c1.128,-0.313 1.802,-0.459 2.17,-0.459l-0.026,-0.009Z" style="fill-rule:nonzero;"/></g></svg>